<svg id="Capa_1" enable-background="new 0 0 511 511" height="512" viewBox="0 0 511 511" width="512" xmlns="http://www.w3.org/2000/svg"><g><path d="m301.559 192h-30.059v15h30.059c8.414 0 16.324-3.276 22.273-9.226l8.971-8.971-10.606-10.606-8.971 8.971c-3.116 3.116-7.26 4.832-11.667 4.832z"/><path d="m188.803 178.197-10.606 10.606 8.971 8.971c5.949 5.95 13.86 9.226 22.273 9.226h30.059v-15h-30.059c-4.407 0-8.551-1.716-11.667-4.833z"/><path d="m400 342.241h15v119.852h-15z" transform="matrix(.356 -.935 .935 .356 -113.385 639.807)"/><path d="m231.5 384h16v15h-16z"/><path d="m263.5 384h16v15h-16z"/><path d="m368.396 294.479-3.123-3.766c-14.282-17.226-33.379-26.713-53.773-26.713s-39.491 9.487-53.773 26.713l-3.123 3.766 12.301 24.602c-3.34.611-6.736.919-10.165.919h-2.48c-17.257 0-33.338-7.729-44.119-21.205l-16.735-20.919c-17.029-21.285-26.406-48.019-26.406-75.276v-19.1c0-48.799 39.701-88.5 88.5-88.5s88.5 39.701 88.5 88.5v19.1c0 17.295-3.625 34.051-10.772 49.8l13.659 6.199c6.428-14.163 10.314-29.052 11.616-44.394 14.008-3.193 24.497-15.743 24.497-30.705 0-14.785-10.241-27.216-24-30.591v-17.409c0-36.892-19.406-69.332-48.542-87.663-3.745-26.988-26.956-47.837-54.958-47.837s-51.213 20.849-54.958 47.837c-29.136 18.331-48.542 50.771-48.542 87.663v17.409c-13.759 3.374-24 15.806-24 30.591 0 14.965 10.493 27.517 24.505 30.707 2.306 26.56 12.465 52.136 29.187 73.039l16.735 20.919c2.903 3.629 6.112 6.925 9.572 9.871v36.295l-163.17 62.16 5.34 14.018 172.831-65.841v-36.825c9.594 4.661 20.236 7.157 31.26 7.157h2.48c5.792 0 11.508-.709 17.083-2.083l14.177 28.353v62.23h15v-56.5h17v120.5c0 4.687-3.813 8.5-8.5 8.5s-8.5-3.813-8.5-8.5v-48h-15v48c0 12.958 10.542 23.5 23.5 23.5s23.5-10.542 23.5-23.5v-126.23zm-.396-110.979c0 6.396-3.666 11.942-9 14.679v-29.357c5.334 2.736 9 8.282 9 14.678zm-112.5-168.5c16.378 0 30.506 9.778 36.88 23.797-11.462-4.386-23.894-6.797-36.88-6.797s-25.418 2.411-36.88 6.797c6.374-14.019 20.502-23.797 36.88-23.797zm0 32c46.801 0 85.226 36.517 88.296 82.553-18.213-29.698-50.978-49.553-88.296-49.553s-70.083 19.855-88.296 49.553c3.07-46.036 41.495-82.553 88.296-82.553zm-112.5 136.5c0-6.396 3.666-11.942 9-14.679v29.357c-5.334-2.736-9-8.282-9-14.678zm168.5 95.5c14.403 0 28.101 6.243 39.022 17.684l-7.657 15.316h-62.729l-7.658-15.316c10.921-11.441 24.619-17.684 39.022-17.684zm-11.365 73-12.5-25h47.729l-12.5 25z"/></g></svg>