<svg id="Capa_1" enable-background="new 0 0 511 511" height="512" viewBox="0 0 511 511" width="512" xmlns="http://www.w3.org/2000/svg"><g><path d="m312 487.5c0 4.687-3.813 8.5-8.5 8.5h-8.5v-16.5c0-8.547-6.953-15.5-15.5-15.5h-48c-8.547 0-15.5 6.953-15.5 15.5v16.5h-8.5c-4.687 0-8.5-3.813-8.5-8.5v-56h-15v56c0 12.958 10.542 23.5 23.5 23.5h96c12.958 0 23.5-10.542 23.5-23.5v-56h-15zm-81-8c0-.276.225-.5.5-.5h48c.275 0 .5.224.5.5v16.5h-49z"/><path d="m135.376 0 33.2 415h173.848l33.2-415zm224 15-2.64 33h-202.472l-2.64-33zm-187.367 254.816c16.324 29.31 47.628 49.184 83.491 49.184s67.167-19.874 83.491-49.184l-7.855 98.184h-151.272zm39.588-113.802c13.057-8.514 28.239-13.014 43.903-13.014 44.388 0 80.5 36.112 80.5 80.5s-36.112 80.5-80.5 80.5-80.5-36.112-80.5-80.5c0-22.383 8.968-43.175 25.25-58.546l-10.297-10.907c-11.055 10.436-19.261 22.981-24.263 36.779l-10.226-127.826h200.072l-10.239 127.985c-13.329-36.699-48.55-62.985-89.797-62.985-18.58 0-36.595 5.342-52.097 15.449zm-29.173 243.986-1.36-17h148.872l-1.36 17z"/><path d="m255.5 279c21.78 0 39.5-17.72 39.5-39.5 0-34.708-32.801-67.907-34.196-69.303l-5.304-5.303-5.304 5.303c-1.395 1.396-34.196 34.595-34.196 69.303 0 21.78 17.72 39.5 39.5 39.5zm0-92.286c8.569 10.166 24.5 31.876 24.5 52.786 0 13.509-10.99 24.5-24.5 24.5s-24.5-10.991-24.5-24.5c0-20.912 15.933-42.624 24.5-52.786z"/><path d="m231.5 88h16v15h-16z"/><path d="m263.5 88h16v15h-16z"/></g></svg>