<svg id="Capa_1" enable-background="new 0 0 511 511" height="512" viewBox="0 0 511 511" width="512" xmlns="http://www.w3.org/2000/svg"><g><path d="m32 263.5c0 74.715 60.785 135.5 135.5 135.5s135.5-60.785 135.5-135.5c0-52.417-29.919-97.974-73.574-120.5h31.537c31.155 24.18 51.485 58.745 57.332 97.616l14.833-2.231c-5.521-36.706-22.787-69.917-49.252-95.384h51.124v-23.5c0-21.78-17.72-39.5-39.5-39.5h-256c-21.78-.001-39.5 17.719-39.5 39.499v23.5h51.197c-13.326 12.885-24.552 27.958-32.954 44.408-12.105 23.699-18.243 49.3-18.243 76.092 0 92.36 75.14 167.5 167.5 167.5 52.145 0 100.406-23.656 132.41-64.902l-11.851-9.195c-29.142 37.557-73.083 59.097-120.559 59.097-84.089 0-152.5-68.411-152.5-152.5 0-47.594 21.495-91.364 59.046-120.5h31.528c-43.655 22.526-73.574 68.083-73.574 120.5zm256 0c0 66.444-54.056 120.5-120.5 120.5s-120.5-54.056-120.5-120.5 54.056-120.5 120.5-120.5 120.5 54.056 120.5 120.5zm-273-135.5v-8.5c0-13.509 10.991-24.5 24.5-24.5h256c13.509 0 24.5 10.991 24.5 24.5v8.5z"/><path d="m143.5 256h16v15h-16z"/><path d="m175.5 256h16v15h-16z"/><path d="m499.372 279.826c4.243-6.043 3.681-14.457-1.716-19.854l-22.628-22.628c-5.398-5.397-13.811-5.959-19.854-1.716-14.658-7.612-31.039-11.628-47.674-11.628-57.07 0-103.5 46.43-103.5 103.5 0 16.635 4.016 33.016 11.628 47.674-4.243 6.043-3.681 14.457 1.716 19.854l22.628 22.628c3.022 3.021 6.991 4.532 10.96 4.532 3.121 0 6.234-.949 8.894-2.816 14.658 7.612 31.039 11.628 47.674 11.628 57.07 0 103.5-46.43 103.5-103.5 0-16.635-4.016-33.016-11.628-47.674zm-91.872-40.826c12.531 0 24.889 2.658 36.217 7.735l-116.982 116.982c-5.077-11.328-7.735-23.686-7.735-36.217 0-48.799 39.701-88.5 88.5-88.5zm-56.923 168.049-22.626-22.626c-.195-.195-.195-.513 0-.708l135.764-135.765c.196-.194.513-.193.708 0l22.627 22.627c.195.195.195.513 0 .708l-135.765 135.765c-.195.195-.513.195-.708-.001zm56.923 8.951c-12.531 0-24.889-2.658-36.217-7.735l116.982-116.982c5.077 11.328 7.735 23.686 7.735 36.217 0 48.799-39.701 88.5-88.5 88.5z"/></g></svg>