<svg id="Capa_1" enable-background="new 0 0 511 511" height="512" viewBox="0 0 511 511" width="512" xmlns="http://www.w3.org/2000/svg"><g><path d="m424 327.5c0 20.001-3.443 39.473-10.248 58.004l-34.13-18.961c-6.115-3.396-13.543-2.355-18.488 2.589s-5.985 12.375-2.589 18.488l26.482 47.661c-32.158 38.652-79.086 60.719-129.527 60.719-45.007 0-87.321-17.527-119.146-49.353-3.593-3.593-7.07-7.404-10.378-11.371l26.479-47.655c3.397-6.113 2.357-13.543-2.588-18.489-4.945-4.945-12.375-5.985-18.488-2.589l-34.131 18.961c-6.805-18.531-10.248-38.003-10.248-58.004h-15c0 24.843 4.884 48.947 14.516 71.64l3.257 7.675 48.89-27.16c.219-.123.33-.183.596.083.267.267.205.377.083.597l-31.361 56.441 3.083 3.92c4.582 5.826 9.521 11.396 14.683 16.557 34.658 34.66 80.739 53.747 129.753 53.747 56.731 0 109.378-25.627 144.44-70.31l3.075-3.918-31.358-56.436c-.122-.22-.184-.33.083-.597.267-.265.377-.206.597-.083l48.89 27.16 3.258-7.675c9.631-22.694 14.515-46.798 14.515-71.641v-128h-15z"/><path d="m87 183.5c0-20.001 3.443-39.473 10.248-58.004l34.13 18.961c6.113 3.395 13.543 2.355 18.488-2.589 4.945-4.946 5.985-12.375 2.588-18.488l-26.482-47.661c32.159-38.652 79.088-60.719 129.528-60.719 45.007 0 87.32 17.527 119.146 49.354 3.594 3.594 7.071 7.404 10.378 11.37l-26.48 47.656c-3.396 6.113-2.355 13.543 2.59 18.488 4.944 4.944 12.373 5.986 18.488 2.589l34.13-18.961c6.805 18.531 10.248 38.003 10.248 58.004h15c0-24.843-4.884-48.947-14.516-71.64l-3.258-7.675-48.89 27.16c-.221.123-.33.182-.597-.083-.267-.267-.205-.377-.084-.597l31.361-56.441-3.082-3.92c-4.579-5.823-9.519-11.394-14.682-16.557-34.658-34.659-80.739-53.747-129.752-53.747-56.73 0-109.377 25.627-144.44 70.31l-3.075 3.918 31.358 56.437c.122.219.183.33-.083.596s-.376.205-.597.083l-48.89-27.16-3.257 7.675c-9.632 22.694-14.516 46.798-14.516 71.641v128h15z"/><path d="m231 207.5c0-21.78-17.72-39.5-39.5-39.5h-32c-21.78 0-39.5 17.72-39.5 39.5s17.72 39.5 39.5 39.5h32c21.78 0 39.5-17.72 39.5-39.5zm-96 0c0-13.509 10.991-24.5 24.5-24.5h32c13.509 0 24.5 10.991 24.5 24.5s-10.991 24.5-24.5 24.5h-32c-13.509 0-24.5-10.991-24.5-24.5z"/><path d="m223.5 439h64c26.191 0 47.5-21.309 47.5-47.5s-21.309-47.5-47.5-47.5h-64c-26.191 0-47.5 21.309-47.5 47.5s21.309 47.5 47.5 47.5zm0-80h64c17.921 0 32.5 14.58 32.5 32.5s-14.579 32.5-32.5 32.5h-64c-17.92 0-32.5-14.58-32.5-32.5s14.58-32.5 32.5-32.5z"/><path d="m391 207.5c0-21.78-17.72-39.5-39.5-39.5h-32c-21.78 0-39.5 17.72-39.5 39.5s17.72 39.5 39.5 39.5h32c21.78 0 39.5-17.72 39.5-39.5zm-96 0c0-13.509 10.99-24.5 24.5-24.5h32c13.51 0 24.5 10.991 24.5 24.5s-10.99 24.5-24.5 24.5h-32c-13.51 0-24.5-10.991-24.5-24.5z"/><path d="m231.5 280h16v15h-16z"/><path d="m263.5 280h16v15h-16z"/></g></svg>