<svg id="Capa_1" enable-background="new 0 0 511 511" height="512" viewBox="0 0 511 511" width="512" xmlns="http://www.w3.org/2000/svg"><g><path d="m312 464h-17.723c-3.515-18.205-19.561-32-38.777-32s-35.262 13.795-38.777 32h-17.723v-32.5h-15v56c0 12.958 10.542 23.5 23.5 23.5h96c12.958 0 23.5-10.542 23.5-23.5v-56h-15zm-56.5-17c10.894 0 20.146 7.149 23.321 17h-46.643c3.176-9.851 12.428-17 23.322-17zm48 49h-96c-4.687 0-8.5-3.813-8.5-8.5v-8.5h113v8.5c0 4.687-3.813 8.5-8.5 8.5z"/><path d="m231.5 88h16v15h-16z"/><path d="m263.5 88h16v15h-16z"/><path d="m370.944 24.837c-30.985-16.016-71.984-24.837-115.444-24.837s-84.459 8.821-115.444 24.837l-4.454 2.303 33.009 387.86h173.777l33.01-387.86zm-11.349 11.109-1.279 15.025c-59.885-25.218-145.711-25.22-205.632.002l-1.279-15.027c58.633-27.986 149.557-27.986 208.19 0zm-188.415 232.349c16.077 30.142 47.84 50.705 84.32 50.705s68.243-20.563 84.32-50.705l-8.485 99.705h-151.67zm40.417-112.281c13.057-8.514 28.239-13.014 43.903-13.014 44.388 0 80.5 36.112 80.5 80.5s-36.112 80.5-80.5 80.5-80.5-36.112-80.5-80.5c0-22.383 8.968-43.175 25.25-58.546l-10.297-10.907c-11.735 11.078-20.259 24.532-25.149 39.339l-10.778-126.643c58.055-26.494 144.931-26.49 202.948-.001l-10.792 126.801c-12.595-38.029-48.483-65.543-90.682-65.543-18.58 0-36.595 5.342-52.097 15.449zm-29.208 243.986-1.447-17h149.116l-1.447 17z"/><path d="m199.5 216v15h17.223c1.028 5.325 3.122 10.275 6.061 14.61l-12.185 12.185 10.607 10.606 12.185-12.185c4.335 2.939 9.284 5.032 14.609 6.06v17.224h15v-17.223c5.325-1.028 10.274-3.121 14.609-6.06l12.185 12.185 10.607-10.606-12.185-12.185c2.939-4.335 5.032-9.285 6.061-14.61h17.223v-15h-17.223c-1.028-5.325-3.122-10.275-6.061-14.61l12.185-12.185-10.607-10.606-12.185 12.185c-4.335-2.939-9.284-5.032-14.609-6.06v-17.225h-15v17.223c-5.325 1.028-10.274 3.121-14.609 6.06l-12.185-12.185-10.607 10.606 12.185 12.185c-2.939 4.335-5.032 9.285-6.061 14.61h-17.223zm56-17c13.51 0 24.5 10.991 24.5 24.5s-10.99 24.5-24.5 24.5-24.5-10.991-24.5-24.5 10.99-24.5 24.5-24.5z"/></g></svg>