<svg id="Capa_1" enable-background="new 0 0 511 511" height="512" viewBox="0 0 511 511" width="512" xmlns="http://www.w3.org/2000/svg"><g><path d="m104 0v111h55.5c31.154 0 56.5 25.346 56.5 56.5v40h15v-32.5h49v32.5h15v-40c0-31.154 25.346-56.5 56.5-56.5h55.5v-111zm176.396 160h-49.791c-2.082-19.883-12.354-37.353-27.364-49h104.519c-15.01 11.647-25.282 29.117-27.364 49zm-129.396-64v-17h152.5v-15h-152.5v-17h209v17h-40.5v15h40.5v17zm241 0h-17v-64h-239v64h-17v-81h273z"/><path d="m247.5 192h16v15h-16z"/><path d="m208 463.5c0 26.191 21.309 47.5 47.5 47.5s47.5-21.309 47.5-47.5v-239.5h-95zm15-224.5h65v224.5c0 17.92-14.579 32.5-32.5 32.5s-32.5-14.58-32.5-32.5z"/><path d="m247.5 456h16v15h-16z"/></g></svg>