<svg id="Capa_1" enable-background="new 0 0 511 511" height="512" viewBox="0 0 511 511" width="512" xmlns="http://www.w3.org/2000/svg"><g><path d="m328 464h-33.723c-3.515-18.205-19.561-32-38.777-32s-35.262 13.795-38.777 32h-33.723v-32.5h-15v56c0 12.958 10.542 23.5 23.5 23.5h128c12.958 0 23.5-10.542 23.5-23.5v-56h-15zm-72.5-17c10.894 0 20.145 7.149 23.321 17h-46.642c3.176-9.851 12.427-17 23.321-17zm64 49h-128c-4.687 0-8.5-3.813-8.5-8.5v-8.5h145v8.5c0 4.687-3.813 8.5-8.5 8.5z"/><path d="m104 0v56.176l32 176v159.324c0 12.958 10.542 23.5 23.5 23.5h192c12.958 0 23.5-10.542 23.5-23.5v-159.324l32-176v-56.176zm288 48h-33v-33h33zm-225 0v-33h33v33zm48-33h33v33h-33zm48 0h33v33h-33zm48 0h33v33h-33zm-159 0v33h-33v-33zm208 220.51v132.49h-209v-132.49c58.542-38.054 150.458-38.054 209 0zm-8.5 164.49h-192c-4.687 0-8.5-3.813-8.5-8.5v-8.5h209v8.5c0 4.687-3.813 8.5-8.5 8.5zm10.617-180.818c-29.817-17.59-67.202-27.185-106.617-27.185s-76.8 9.595-106.617 27.185l-28.396-156.182h270.027z"/><path d="m231.5 120h16v15h-16z"/><path d="m263.5 120h16v15h-16z"/></g></svg>