<svg id="Capa_1" enable-background="new 0 0 511 511" height="512" viewBox="0 0 511 511" width="512" xmlns="http://www.w3.org/2000/svg"><g><path d="m119 31.5c0-9.098 7.402-16.5 16.5-16.5s16.5 7.402 16.5 16.5v48h15v-48c0-17.369-14.131-31.5-31.5-31.5s-31.5 14.131-31.5 31.5v48h15z"/><path d="m72 143h16v16.5c0 8.547 6.953 15.5 15.5 15.5h.783l7.108 184.8c.5 13.009 11.09 23.2 24.109 23.2s23.609-10.191 24.109-23.2l7.108-184.8h.783c8.547 0 15.5-6.953 15.5-15.5v-16.5h16v-47h-127zm72.62 216.224c-.189 4.921-4.195 8.776-9.12 8.776s-8.931-3.855-9.12-8.776l-7.086-184.224h32.412zm23.38-199.724c0 .276-.224.5-.5.5h-64c-.276 0-.5-.224-.5-.5v-16.5h65zm-81-48.5h97v17h-97z"/><path d="m439 295.5v-107.106l-48-48v-52.394h-127v52.393l-48 48v234.607h223v-111.5h-15v48.5h-193v-113h193v48.5zm-15 79.5v33h-193v-33zm-145-272h97v33h-97zm-4.393 48h105.786l33 33h-171.786zm-43.607 81v-33h193v33z"/><path d="m135.5 408.923-6.431 10.718c-2.566 4.277-25.069 42.289-25.069 59.859 0 17.369 14.131 31.5 31.5 31.5s31.5-14.131 31.5-31.5c0-17.57-22.503-55.582-25.069-59.859zm0 87.077c-9.098 0-16.5-7.402-16.5-16.5 0-7.891 8.536-26.159 16.5-40.836 7.964 14.677 16.5 32.946 16.5 40.836 0 9.098-7.402 16.5-16.5 16.5z"/><path d="m303.5 296h16v15h-16z"/><path d="m335.5 296h16v15h-16z"/></g></svg>