<svg id="Capa_1" enable-background="new 0 0 511 511" height="512" viewBox="0 0 511 511" width="512" xmlns="http://www.w3.org/2000/svg"><g><path d="m287.5 128h-192c-12.958 0-23.5 10.542-23.5 23.5v336c0 12.958 10.542 23.5 23.5 23.5h192c12.958 0 23.5-10.542 23.5-23.5v-336c0-12.958-10.542-23.5-23.5-23.5zm-192 15h192c4.687 0 8.5 3.813 8.5 8.5v8.5h-209v-8.5c0-4.687 3.813-8.5 8.5-8.5zm192 353h-192c-4.687 0-8.5-3.813-8.5-8.5v-312.5h209v49h-160v191h160v49h-192.5v15h192.5v8.5c0 4.687-3.813 8.5-8.5 8.5zm8.5-257v161h-145v-161z"/><path d="m104 0v47h56v33h-24.5c-8.547 0-15.5 6.953-15.5 15.5v16h15v-16c0-.276.225-.5.5-.5h112c.275 0 .5.224.5.5v16h15v-16c0-8.547-6.953-15.5-15.5-15.5h-24.5v-33h29.394l35.106 35.106 34.606-34.606-47.5-47.5zm104 80h-33v-33h33zm79.5-19.106-28.894-28.894h-139.606v-17h149.394l32.5 32.5z"/><path d="m407 119.5c0-21.78-17.72-39.5-39.5-39.5s-39.5 17.72-39.5 39.5 17.72 39.5 39.5 39.5 39.5-17.72 39.5-39.5zm-64 0c0-13.509 10.99-24.5 24.5-24.5s24.5 10.991 24.5 24.5-10.99 24.5-24.5 24.5-24.5-10.991-24.5-24.5z"/><path d="m407.5 184c-17.369 0-31.5 14.131-31.5 31.5s14.131 31.5 31.5 31.5 31.5-14.131 31.5-31.5-14.131-31.5-31.5-31.5zm0 48c-9.098 0-16.5-7.402-16.5-16.5s7.402-16.5 16.5-16.5 16.5 7.402 16.5 16.5-7.402 16.5-16.5 16.5z"/><path d="m367.5 256c-12.958 0-23.5 10.542-23.5 23.5s10.542 23.5 23.5 23.5 23.5-10.542 23.5-23.5-10.542-23.5-23.5-23.5zm0 32c-4.687 0-8.5-3.813-8.5-8.5s3.813-8.5 8.5-8.5 8.5 3.813 8.5 8.5-3.813 8.5-8.5 8.5z"/><path d="m231.5 312h16v15h-16z"/><path d="m263.5 312h16v15h-16z"/></g></svg>