<svg id="Capa_1" enable-background="new 0 0 511 511" height="512" viewBox="0 0 511 511" width="512" xmlns="http://www.w3.org/2000/svg"><g><path d="m231.5 424.246h16v15h-16z"/><path d="m263.5 424.246h16v15h-16z"/><path d="m408 394.095h15v102.73h-15z" transform="matrix(.356 -.935 .935 .356 -148.693 675.159)"/><path d="m303 358.282c3.46-2.946 6.669-6.242 9.572-9.871l16.735-20.919c16.722-20.903 26.881-46.479 29.187-73.039 14.013-3.191 24.506-15.743 24.506-30.707 0-14.785-10.241-27.216-24-30.591v-17.409c0-36.892-19.406-69.332-48.542-87.663-3.746-26.988-26.957-47.837-54.958-47.837s-51.213 20.849-54.958 47.837c-29.136 18.331-48.542 50.771-48.542 87.663v17.409c-13.759 3.374-24 15.806-24 30.591 0 14.965 10.493 27.517 24.505 30.707 2.306 26.56 12.465 52.136 29.187 73.039l16.735 20.919c2.903 3.629 6.112 6.925 9.572 9.871v36.295l-163.17 62.16 5.34 14.018 172.831-65.841v-36.825c9.594 4.661 20.236 7.157 31.26 7.157h2.48c11.023 0 21.666-2.495 31.26-7.157v36.825l60.83 23.174 5.34-14.018-51.17-19.493zm16-150.153c11.906 2.824 21.292 12.211 24.117 24.117h-24.117zm-15 24.117h-24.117c2.824-11.906 12.211-21.292 24.117-24.117zm0 15v24.117c-11.906-2.824-21.292-12.211-24.117-24.117zm15 0h24.117c-2.824 11.906-12.211 21.292-24.117 24.117zm49-23.5c0 6.396-3.666 11.942-9 14.679v-29.357c5.334 2.736 9 8.281 9 14.678zm-112.5-168.5c16.378 0 30.506 9.778 36.88 23.797-11.463-4.386-23.894-6.797-36.88-6.797s-25.418 2.411-36.88 6.797c6.374-14.02 20.502-23.797 36.88-23.797zm0 32c46.801 0 85.226 36.517 88.296 82.553-18.212-29.699-50.978-49.553-88.296-49.553s-70.083 19.855-88.296 49.553c3.07-46.037 41.495-82.553 88.296-82.553zm-63.5 184.116c-11.906-2.824-21.292-12.211-24.117-24.117h24.117zm15-24.116h24.117c-2.824 11.906-12.211 21.292-24.117 24.117zm0-15v-24.117c11.906 2.824 21.292 12.211 24.117 24.117zm-15 0h-24.117c2.824-11.906 12.211-21.292 24.117-24.117zm-49-8.5c0-6.396 3.666-11.942 9-14.679v29.357c-5.334-2.737-9-8.282-9-14.678zm111.26 136.5c-17.257 0-33.338-7.729-44.119-21.205l-16.735-20.919c-9.376-11.72-16.417-25.097-20.866-39.299 7.665 5.305 16.953 8.423 26.96 8.423 26.191 0 47.5-21.309 47.5-47.5s-21.309-47.5-47.5-47.5c-11.384 0-21.842 4.029-30.032 10.731 9.37-38.811 44.385-67.731 86.032-67.731s76.662 28.92 86.032 67.731c-8.19-6.702-18.649-10.731-30.032-10.731-26.191 0-47.5 21.309-47.5 47.5s21.309 47.5 47.5 47.5c10.007 0 19.295-3.118 26.96-8.423-4.449 14.202-11.49 27.579-20.866 39.299l-16.735 20.919c-10.781 13.476-26.862 21.205-44.119 21.205z"/><path d="m86.529 287.246c6.536 0 12.682-2.545 17.303-7.167 9.541-9.541 9.541-25.065 0-34.606l-11.029-11.029-10.606 10.606 11.029 11.029c1.789 1.789 2.774 4.167 2.774 6.697s-.985 4.908-2.774 6.697-4.167 2.774-6.697 2.774-4.908-.985-6.697-2.774l-57.657-57.657c-4.627-4.628-7.175-10.781-7.175-17.325v-54.863c0-10.818 4.213-20.989 11.862-28.638l57.941-57.941-10.606-10.607-57.941 57.941c-10.483 10.483-16.256 24.42-16.256 39.245v54.863c0 10.551 4.109 20.47 11.569 27.931l57.657 57.657c4.622 4.621 10.767 7.167 17.303 7.167z"/><path d="m80 207.746c0 4.687-3.813 8.5-8.5 8.5s-8.5-3.813-8.5-8.5v-48h-15v48c0 12.958 10.542 23.5 23.5 23.5s23.5-10.542 23.5-23.5v-68.894l37.803-37.803-10.606-10.606-42.197 42.196z"/><path d="m494.744 100.383-57.941-57.941-10.606 10.606 57.941 57.941c7.649 7.649 11.862 17.82 11.862 28.638v54.863c0 6.544-2.548 12.697-7.176 17.324l-57.657 57.657c-1.789 1.789-4.167 2.774-6.697 2.774s-4.908-.985-6.697-2.774-2.774-4.167-2.774-6.697.985-4.908 2.774-6.697l25.075-25.075c11.378-1.63 20.152-11.436 20.152-23.256v-48h-15v48c0 4.687-3.813 8.5-8.5 8.5s-8.5-3.813-8.5-8.5v-75.106l-42.197-42.197-10.606 10.606 37.803 37.803v68.894c0 7.853 3.876 14.813 9.811 19.083l-18.643 18.643c-9.541 9.541-9.541 25.065 0 34.606 4.622 4.622 10.767 7.167 17.303 7.167s12.682-2.545 17.303-7.167l57.657-57.657c7.46-7.46 11.569-17.38 11.569-27.931v-54.863c0-14.824-5.773-28.761-16.256-39.244z"/></g></svg>