<svg id="Capa_1" enable-background="new 0 0 511 511" height="512" viewBox="0 0 511 511" width="512" xmlns="http://www.w3.org/2000/svg"><g><path d="m100 399h63v-63h-63zm15-48h33v33h-33z"/><path d="m180 399h63v-63h-63zm15-48h33v33h-33z"/><path d="m260 399h63v-63h-63zm15-48h33v33h-33z"/><path d="m163 256h-63v63h63zm-15 48h-33v-33h33z"/><path d="m243 256h-63v63h63zm-15 48h-33v-33h33z"/><path d="m323 256h-63v63h63zm-15 48h-33v-33h33z"/><path d="m403 175v-143h-303v143zm-288-128h273v113h-273z"/><path d="m132.873 76h45.255v15h-45.255z" transform="matrix(.707 -.707 .707 .707 -13.496 134.42)"/><path d="m134.245 100h90.51v15h-90.51z" transform="matrix(.707 -.707 .707 .707 -23.437 158.421)"/><path d="m435 260.446c4.971-5.571 8-12.91 8-20.946 0-16.31-12.268-47.5-31.5-47.5s-31.5 31.19-31.5 47.5c0 6.046 1.716 11.698 4.681 16.5h-44.681v63h48v17h-48v63h48v17h-305v-177h280.5v-15h-248.5v-17h256.5v-15h-288.5v-177h337v160.5h15v-175.5h-367v207h32v17h-32v215.5c0 12.958 10.542 23.5 23.5 23.5h288.513c-.003.167-.013.332-.013.5 0 16.31 12.268 47.5 31.5 47.5s31.5-31.19 31.5-47.5c0-8.036-3.029-15.375-8-20.946zm-32 9.379c2.706.76 5.555 1.175 8.5 1.175s5.794-.415 8.5-1.175v163.35c-2.706-.76-5.555-1.175-8.5-1.175s-5.794.415-8.5 1.175zm8.5-62.825c6.322 0 16.5 20.047 16.5 32.5 0 9.098-7.402 16.5-16.5 16.5s-16.5-7.402-16.5-16.5c0-12.453 10.178-32.5 16.5-32.5zm-56.5 97v-33h33v33zm0 80v-33h33v33zm-263.5 64c-4.687 0-8.5-3.813-8.5-8.5v-8.5h305v11.554c-1.487 1.666-2.796 3.492-3.906 5.446zm320 48c-6.322 0-16.5-20.047-16.5-32.5 0-9.098 7.402-16.5 16.5-16.5s16.5 7.402 16.5 16.5c0 12.453-10.178 32.5-16.5 32.5z"/><path d="m227.5 128h16v15h-16z"/><path d="m259.5 128h16v15h-16z"/></g></svg>