<svg id="Capa_1" enable-background="new 0 0 510.509 510.509" height="512" viewBox="0 0 510.509 510.509" width="512" xmlns="http://www.w3.org/2000/svg"><g><path d="m231.254 464h16v15h-16z"/><path d="m263.254 464h16v15h-16z"/><path d="m382.754 464.808v-261.308h-15v57.181c-4.802-2.965-10.454-4.681-16.5-4.681-48.799 0-88.5-39.701-88.5-88.5h-15c0 48.799-39.701 88.5-88.5 88.5-6.046 0-11.698 1.716-16.5 4.681v-57.181h-15v261.308l-83.17 31.684 5.34 14.018 172.83-65.84v-36.825c9.594 4.662 20.236 7.157 31.26 7.157h2.48c11.023 0 21.666-2.495 31.26-7.157v36.825l172.83 65.84 5.34-14.018zm-15-177.308c0 6.995-4.383 12.973-10.541 15.369 1.019-6.687 1.541-13.463 1.541-20.269v-9.779c5.335 2.737 9 8.283 9 14.679zm-216-14.678v9.779c0 6.806.523 13.582 1.541 20.269-6.158-2.396-10.541-8.374-10.541-15.369 0-6.397 3.666-11.943 9-14.679zm56 161.51-65 24.762v-144.775c4.128 2.549 8.886 4.166 13.982 4.572 4.881 17.521 13.254 34.035 24.71 48.356l16.735 20.919c2.903 3.629 6.112 6.925 9.572 9.871v36.295zm46.26-34.332c-17.257 0-33.338-7.729-44.119-21.205l-16.735-20.919c-17.028-21.285-26.405-48.019-26.405-75.276v-11.874c6.223-.448 12.297-1.446 18.17-2.95l1.997 1.998c5.949 5.95 13.86 9.226 22.273 9.226h30.059v-15h-30.059c-2.776 0-5.446-.684-7.822-1.966 24.402-10.915 43.832-31.008 53.881-55.865 10.048 24.856 29.478 44.95 53.881 55.865-2.376 1.283-5.046 1.966-7.822 1.966h-30.059v15h30.059c8.414 0 16.324-3.276 22.273-9.226l1.997-1.998c5.873 1.504 11.947 2.502 18.17 2.95v11.874c0 27.257-9.377 53.991-26.405 75.276l-16.735 20.919c-10.78 13.476-26.861 21.205-44.118 21.205zm48.74-1.964c3.46-2.946 6.669-6.242 9.572-9.871l16.735-20.919c11.456-14.32 19.829-30.835 24.71-48.356 5.096-.406 9.854-2.022 13.982-4.572v144.775l-65-24.762v-36.295z"/><path d="m95.754 135.5c0 30.603 24.897 55.5 55.5 55.5 29.832 0 54.241-23.655 55.453-53.194 3.558-1.657 6.913-3.681 10.042-6.06 11.488 7.381 24.681 11.254 38.505 11.254s27.017-3.873 38.505-11.254c3.13 2.378 6.485 4.403 10.042 6.06 1.212 29.539 25.622 53.194 55.453 53.194 30.603 0 55.5-24.897 55.5-55.5 0-21.689-12.683-41.262-32.056-50.295-.565-13.963-6.26-27.01-16.2-36.949-10.482-10.483-24.419-16.256-39.244-16.256-3.956 0-7.844.424-11.625 1.226-13.064-20.635-35.674-33.226-60.375-33.226s-47.31 12.591-60.375 33.226c-3.78-.802-7.669-1.226-11.625-1.226-14.825 0-28.762 5.773-39.244 16.256-9.94 9.939-15.635 22.986-16.2 36.949-19.373 9.033-32.056 28.606-32.056 50.295zm58.863-76.638c7.649-7.649 17.82-11.862 28.637-11.862s20.988 4.213 28.638 11.862l10.606-10.606c-3.928-3.928-8.342-7.195-13.105-9.745 10.534-14.671 27.466-23.511 45.861-23.511s35.328 8.84 45.861 23.511c-4.763 2.55-9.177 5.816-13.105 9.745l10.606 10.606c7.65-7.649 17.821-11.862 28.638-11.862s20.988 4.213 28.638 11.862 11.862 17.82 11.862 28.638-4.213 20.988-11.862 28.638l10.606 10.606c7.135-7.134 12.081-15.871 14.517-25.396 11.48 7.326 18.738 20.135 18.738 34.152 0 22.332-18.168 40.5-40.5 40.5s-40.5-18.168-40.5-40.5c0-.71.022-1.461.069-2.295l.315-5.625-5.315-1.869c-5.411-1.903-10.277-4.886-14.463-8.867l-4.648-4.42-5.088 3.907c-9.941 7.634-21.826 11.669-34.37 11.669s-24.428-4.035-34.37-11.669l-5.088-3.907-4.648 4.42c-4.186 3.981-9.052 6.964-14.463 8.867l-5.315 1.869.315 5.625c.047.834.069 1.585.069 2.295 0 22.332-18.168 40.5-40.5 40.5s-40.5-18.168-40.5-40.5c0-14.017 7.258-26.826 18.738-34.152 2.436 9.525 7.383 18.262 14.517 25.396l10.606-10.606c-7.649-7.649-11.862-17.82-11.862-28.638s4.215-20.988 11.865-28.638z"/><path d="m415.254 79c12.958 0 23.5-10.542 23.5-23.5s-10.542-23.5-23.5-23.5-23.5 10.542-23.5 23.5 10.542 23.5 23.5 23.5zm0-32c4.687 0 8.5 3.813 8.5 8.5s-3.813 8.5-8.5 8.5-8.5-3.813-8.5-8.5 3.813-8.5 8.5-8.5z"/><path d="m95.254 231c12.958 0 23.5-10.542 23.5-23.5s-10.542-23.5-23.5-23.5-23.5 10.542-23.5 23.5 10.542 23.5 23.5 23.5zm0-32c4.687 0 8.5 3.813 8.5 8.5s-3.813 8.5-8.5 8.5-8.5-3.813-8.5-8.5 3.813-8.5 8.5-8.5z"/><path d="m111.254 47c12.958 0 23.5-10.542 23.5-23.5s-10.542-23.5-23.5-23.5-23.5 10.542-23.5 23.5 10.542 23.5 23.5 23.5zm0-32c4.687 0 8.5 3.813 8.5 8.5s-3.813 8.5-8.5 8.5-8.5-3.813-8.5-8.5 3.813-8.5 8.5-8.5z"/></g></svg>