<svg id="Capa_1" enable-background="new 0 0 511 511" height="512" viewBox="0 0 511 511" width="512" xmlns="http://www.w3.org/2000/svg"><g><path d="m312 464h-17.723c-3.515-18.205-19.561-32-38.777-32s-35.262 13.795-38.777 32h-17.723v-32.5h-15v56c0 12.958 10.542 23.5 23.5 23.5h96c12.958 0 23.5-10.542 23.5-23.5v-56h-15zm-56.5-17c10.894 0 20.146 7.149 23.321 17h-46.643c3.177-9.851 12.428-17 23.322-17zm48 49h-96c-4.687 0-8.5-3.813-8.5-8.5v-8.5h113v8.5c0 4.687-3.813 8.5-8.5 8.5z"/><path d="m231.5 80h16v15h-16z"/><path d="m263.5 80h16v15h-16z"/><path d="m136 0v55.5l32.651 359.5h173.698l32.62-358.821.031-56.179zm224 48h-17v-33h17zm-202.469 79h195.938l-19 209h-157.938zm-1.364-15-4.455-49h207.574l-4.454 49zm154.833-64v-33h17v33zm-15 0h-17v-33h17zm-32 0h-17v-33h17zm-32 0h-17v-33h17zm-32 0h-17v-33h17zm-32-33v33h-17v-33zm14.349 385-4.455-49h155.211l-4.455 49z"/><path d="m255.5 176c-30.603 0-55.5 24.897-55.5 55.5s24.897 55.5 55.5 55.5 55.5-24.897 55.5-55.5-24.897-55.5-55.5-55.5zm0 96c-22.332 0-40.5-18.168-40.5-40.5s18.168-40.5 40.5-40.5 40.5 18.168 40.5 40.5-18.168 40.5-40.5 40.5z"/></g></svg>