<svg id="Capa_1" enable-background="new 0 0 511 511" height="512" viewBox="0 0 511 511" width="512" xmlns="http://www.w3.org/2000/svg"><g><path d="m47.5 328h240v15h-240z"/><path d="m95.5 360h144v15h-144z"/><path d="m495.5 56h-320c-8.547 0-15.5 6.953-15.5 15.5v32c0 8.547 6.953 15.5 15.5 15.5h32.5v8.5c0 12.958 10.542 23.5 23.5 23.5 2.997 0 5.862-.57 8.5-1.597v26.097c0 12.958 10.542 23.5 23.5 23.5 10.336 0 19.128-6.71 22.266-16h17.734c.275 0 .5.224.5.5v32.5h-273v-32.5c0-.276.224-.5.5-.5h192v-15h-192c-8.547 0-15.5 6.953-15.5 15.5v32.5h-16v207.5c0 17.369 14.131 31.5 31.5 31.5h272c17.369 0 31.5-14.131 31.5-31.5v-207.5h-16v-32.5c0-8.547-6.953-15.5-15.5-15.5h-16.5v-49h208.5c8.547 0 15.5-6.953 15.5-15.5v-32c0-8.547-6.953-15.5-15.5-15.5zm-192 384h-272c-9.098 0-16.5-7.402-16.5-16.5v-16.5h305v16.5c0 9.098-7.402 16.5-16.5 16.5zm16.5-176h-144.5v15h144.5v113h-305v-113h144.5v-15h-144.5v-33h305zm-144.5-160c-.276 0-.5-.224-.5-.5v-32c0-.276.224-.5.5-.5h32.5v33zm88 80c-4.687 0-8.5-3.813-8.5-8.5v-88h-15v40c0 4.687-3.813 8.5-8.5 8.5s-8.5-3.813-8.5-8.5v-56.5h49v104.5c0 4.687-3.813 8.5-8.5 8.5zm232.5-80.5c0 .276-.225.5-.5.5h-208.5v-33h208.5c.275 0 .5.224.5.5z"/><path d="m143.5 296h16v15h-16z"/><path d="m175.5 296h16v15h-16z"/></g></svg>