<svg id="Capa_1" enable-background="new 0 0 511.5 511.5" height="512" viewBox="0 0 511.5 511.5" width="512" xmlns="http://www.w3.org/2000/svg"><g><path d="m200.261 399.5h15v112h-15z"/><path d="m183.261 227.899v-4.399c0-21.78-17.72-39.5-39.5-39.5s-39.5 17.72-39.5 39.5v4.399c-19.842 13.184-32 35.629-32 59.601v224h15v-224c0-15.325 6.294-29.859 17-40.372v56.372c0 12.958 10.542 23.5 23.5 23.5h32c12.958 0 23.5-10.542 23.5-23.5v-56.372c10.706 10.512 17 25.046 17 40.372v96h15v-96c0-23.971-12.158-46.417-32-59.601zm-39.5-28.899c13.51 0 24.5 10.991 24.5 24.5v49.051c-6.739-5.346-15.25-8.551-24.5-8.551s-17.761 3.205-24.5 8.551v-49.051c0-13.509 10.99-24.5 24.5-24.5zm16 113h-32c-4.687 0-8.5-3.813-8.5-8.5 0-13.509 10.99-24.5 24.5-24.5s24.5 10.991 24.5 24.5c0 4.687-3.813 8.5-8.5 8.5z"/><path d="m103.761 392h80v15h-80z"/><path d="m119.761 480h16v15h-16z"/><path d="m151.761 480h16v15h-16z"/><path d="m423.812 15.452c-9.964-9.965-23.212-15.452-37.304-15.452-14.091 0-27.339 5.487-37.303 15.452l-133.491 133.49c-20.568 20.569-20.568 54.038 0 74.606 9.965 9.964 23.213 15.452 37.304 15.452 14.092 0 27.34-5.487 37.304-15.452l133.491-133.49c20.568-20.569 20.568-54.037-.001-74.606zm-34.655 88.048-13.894 13.893v-27.786zm-28.894 28.894-17 17v-91.787l17 17zm-133.941 27.154 5.941-5.941v64.185c-2.115-1.398-4.107-3.016-5.941-4.85-14.721-14.721-14.721-38.673 0-53.394zm20.941 64.015v-84.956l17-17v100.693c-3.594 1.116-7.374 1.7-11.245 1.7-1.945 0-3.867-.15-5.755-.437zm32.451-10.621c-.147.147-.302.285-.451.43v-106.765l49-49v106.786l-17 17v-77.893h-15v92.893zm133.491-133.49-13.442 13.442-53.393-53.394 13.442-13.442c7.132-7.131 16.612-11.058 26.697-11.058 10.084 0 19.565 3.927 26.696 11.058 14.721 14.721 14.721 38.673 0 53.394z"/></g></svg>