<svg id="Capa_1" enable-background="new 0 0 512 512" height="512" viewBox="0 0 512 512" width="512" xmlns="http://www.w3.org/2000/svg"><g><path d="m232.5 400h15v112h-15z"/><path d="m215.5 228.399v-4.399c0-21.78-17.72-39.5-39.5-39.5s-39.5 17.72-39.5 39.5v4.399c-19.842 13.184-32 35.629-32 59.601v224h15v-224c0-15.325 6.294-29.859 17-40.372v56.372c0 12.958 10.542 23.5 23.5 23.5h32c12.958 0 23.5-10.542 23.5-23.5v-56.372c10.706 10.512 17 25.046 17 40.372v96h15v-96c0-23.971-12.158-46.417-32-59.601zm-55.5 84.101c-4.687 0-8.5-3.813-8.5-8.5v-23.792c16.327 3.071 29.221 15.966 32.292 32.292zm40.5-8.5c0 2.088-.76 3.999-2.013 5.48-4.467-23.177-23.391-41.256-46.987-44.459v-33.008c27.619 3.682 49 27.377 49 55.987zm0-59.74c-11.447-14.752-28.523-24.913-47.983-27.235 3.012-10.121 12.397-17.525 23.483-17.525 13.51 0 24.5 10.991 24.5 24.5z"/><path d="m136 392.5h80v15h-80z"/><path d="m152 480.5h16v15h-16z"/><path d="m184 480.5h16v15h-16z"/><path d="m392.5 0h15v112h-15z"/><path d="m296 104.5h80v15h-80z"/><path d="m312 16.5h16v15h-16z"/><path d="m344 16.5h16v15h-16z"/><path d="m375.5 283.601c19.842-13.184 32-35.629 32-59.601v-96h-15v96c0 15.325-6.294 29.859-17 40.372v-56.372c0-12.958-10.542-23.5-23.5-23.5h-32c-12.958 0-23.5 10.542-23.5 23.5v56.372c-10.706-10.512-17-25.046-17-40.372v-224h-15v224c0 23.971 12.158 46.417 32 59.601v4.399c0 21.78 17.72 39.5 39.5 39.5s39.5-17.72 39.5-39.5zm-64-75.601c0-4.687 3.813-8.5 8.5-8.5h13.893l-22.393 22.393zm26.711 104.396 22.184-22.184c-1.056 11.747-10.436 21.127-22.184 22.184zm22.289-43.503-38.906 38.906c-5.367-3.916-9.085-9.955-9.913-16.873l48.819-48.819zm0-48-49 49v-26.786l43.171-43.171c3.381 1.123 5.829 4.31 5.829 8.064z"/><path d="m104.5 192h15c0-13.509 10.99-24.5 24.5-24.5v-15c-13.51 0-24.5-10.991-24.5-24.5h-15c0 13.509-10.99 24.5-24.5 24.5v15c13.51 0 24.5 10.991 24.5 24.5zm7.5-40.884c2.471 3.412 5.472 6.413 8.884 8.884-3.412 2.471-6.413 5.472-8.884 8.884-2.471-3.412-5.472-6.413-8.884-8.884 3.412-2.471 6.413-5.472 8.884-8.884z"/><path d="m407.5 320h-15c0 13.509-10.99 24.5-24.5 24.5v15c13.51 0 24.5 10.991 24.5 24.5h15c0-13.509 10.99-24.5 24.5-24.5v-15c-13.51 0-24.5-10.991-24.5-24.5zm-7.5 40.884c-2.471-3.412-5.472-6.413-8.884-8.884 3.412-2.471 6.413-5.472 8.884-8.884 2.471 3.412 5.472 6.413 8.884 8.884-3.412 2.471-6.413 5.472-8.884 8.884z"/><path d="m288 344.5h16v15h-16z"/><path d="m408 272.5h16v15h-16z"/><path d="m208 152.5h16v15h-16z"/><path d="m88 216.5h16v15h-16z"/></g></svg>