<svg id="Capa_1" enable-background="new 0 0 511 511" height="512" viewBox="0 0 511 511" width="512" xmlns="http://www.w3.org/2000/svg"><g><path d="m159.5 344.553c17.369 0 31.5-14.131 31.5-31.5s-14.131-31.5-31.5-31.5-31.5 14.131-31.5 31.5 14.131 31.5 31.5 31.5zm0-48c9.098 0 16.5 7.402 16.5 16.5s-7.402 16.5-16.5 16.5-16.5-7.402-16.5-16.5 7.402-16.5 16.5-16.5z"/><path d="m23.5 320.553h64.895c3.761 35.913 34.212 64 71.105 64h351.5v-63h-16v-8.5c0-12.958-10.542-23.5-23.5-23.5h-128c-12.958 0-23.5 10.542-23.5 23.5v8.5h-72.5v15h248.5v33h-292.76c16.871-13.091 27.76-33.542 27.76-56.5 0-39.425-32.075-71.5-71.5-71.5-.611 0-1.214.031-1.821.046l213.939-213.939 23.335 23.335-1.688 1.688-92.69 92.69-94.378 94.377 10.606 10.607 64.462-64.462 6.01 6.01c4.439 4.439 10.34 6.884 16.618 6.884 6.277 0 12.178-2.444 16.617-6.883l89.373-89.372c4.438-4.438 6.883-10.34 6.883-16.617s-2.444-12.179-6.883-16.618l-6.01-6.01 12.294-12.294-44.549-44.548-241.407 241.406c-22.685 10.231-39.119 31.944-41.816 57.7h-64.895c-12.958 0-23.5 10.542-23.5 23.5v56c0 12.958 10.542 23.5 23.5 23.5h88c4.687 0 8.5 3.813 8.5 8.5v32c0 12.958 10.542 23.5 23.5 23.5h88.5v8.5c0 12.958 10.542 23.5 23.5 23.5h39.5v-16h32.5v-15h-32.5v-17h32.5v-15h-32.5v-16h-39.5c-12.958 0-23.5 10.542-23.5 23.5v8.5h-88.5c-4.687 0-8.5-3.813-8.5-8.5v-32c0-12.958-10.542-23.5-23.5-23.5h-88c-4.687 0-8.5-3.813-8.5-8.5v-56c0-4.686 3.813-8.5 8.5-8.5zm311.5 1v-8.5c0-4.687 3.813-8.5 8.5-8.5h128c4.687 0 8.5 3.813 8.5 8.5v8.5zm64.274-241.648c1.606 1.606 2.49 3.741 2.49 6.012s-.884 4.404-2.49 6.01l-89.373 89.373c-1.605 1.605-3.74 2.489-6.01 2.489-2.271 0-4.405-.884-6.011-2.49l-6.01-6.01 101.395-101.394zm-239.774 176.648c31.154 0 56.5 25.346 56.5 56.5s-25.346 56.5-56.5 56.5-56.5-25.346-56.5-56.5 25.346-56.5 56.5-56.5zm87.5 192.5c0-4.687 3.813-8.5 8.5-8.5h24.5v49h-24.5c-4.687 0-8.5-3.813-8.5-8.5z"/><path d="m383.5 345.553h16v15h-16z"/><path d="m415.5 345.553h16v15h-16z"/></g></svg>