<?xml version="1.0" encoding="UTF-8"?>
<svg id="Outline" xmlns="http://www.w3.org/2000/svg" version="1.1" viewBox="0 0 64 64">
  <!-- Generator: Adobe Illustrator 29.5.1, SVG Export Plug-In . SVG Version: 2.1.0 Build 141)  -->
  <path d="M56.04001,50.035h-2c-.55273,0-1,.44775-1,1s.44727,1,1,1h2c.55273,0,1-.44775,1-1s-.44727-1-1-1Z"/>
  <path d="M18.04001,50.035h-4c-.55273,0-1,.44775-1,1s.44727,1,1,1h4c.55273,0,1-.44775,1-1s-.44727-1-1-1Z"/>
  <path d="M34.04001,50.035h-.4101l-1.22369-3.99756c-.0996-.44626-.49897-.7773-.97647-.77734-.65982-.00006-1.14929.67011-.95614,1.29785l1.06482,3.47705h-1.49841c-.55273,0-1,.44775-1,1s.44727,1,1,1h4c.55273,0,1-.44775,1-1s-.44727-1-1-1Z"/>
  <path d="M26.04001,50.035h-4c-.55273,0-1,.44775-1,1s.44727,1,1,1h4c.55273,0,1-.44775,1-1s-.44727-1-1-1Z"/>
  <path d="M50.04001,50.035h-4c-.55273,0-1,.44775-1,1s.44727,1,1,1h4c.55273,0,1-.44775,1-1s-.44727-1-1-1Z"/>
  <path d="M56.95999,46.845c-2.03998-4.85004-6.08997-8.52002-11.13-10.06l-2.64996-.81c-.52002-.16003-1.09003.13995-1.25.66998-.16003.53003.14001,1.08002.66998,1.25l2.65002.81c3.72998,1.14001,6.85999,3.59998,8.83997,6.89001l-28.64996-8.77002c.00995-.03998.03998-.08002.03998-.12l.56-3.88,12.71997,3.90002c.09003.02997.19.03998.29004.03998.42999,0,.82001-.27997.95996-.71002.16003-.52997-.13995-1.07996-.66998-1.25l-4.5-1.37-2.48999-8.14996c2.37-1.12,4.02002-3.53003,4.02002-6.32001,0-3.85999-3.14001-7-7-7s-7,3.14001-7,7c0,.69.09998,1.35999.28998,2,.01001.01001,0,.02997.01001.03998l2.92999,9.60004-9.59003-2.94h-.02997c-.64001-.19-1.31-.30005-2.02002-.30005-3.85999,0-7,3.14001-7,7s3.14001,7,7,7c2.79999,0,5.21002-1.64996,6.33002-4.01996l8.14001,2.48999.87,2.88c.13.42996.52991.70998.95987.71002.64641.00006,1.15483-.64512.96011-1.29004l-.48999-1.59998,4.63,1.41998,2.47998,8.12c-.45001.10004-.79999.47998-.79999.96002,0,.54999.45001,1,1,1h4c.54999,0,1-.45001,1-1s-.45001-1-1-1h-2.12l-2.26001-7.38,18.09003,5.53998c.08992.03001.1899.04003.28983.04004.70541.00007,1.19071-.74077.92013-1.39001ZM26.00998,25.10501c1,.53998,2.14001.85999,3.36005.85999.35999,0,.71997-.03998,1.07001-.09003l.81,2.65002-4.02002.57001-1.22003-3.98999ZM32.53,32.72501l-4.62-1.42004-.08002-.26996,3.88-.54999c.04004-.01001.08002-.04004.12-.05005l.70001,2.29004ZM24.37003,18.965c0-2.76001,2.23999-5,5-5,2.75,0,5,2.23999,5,5,0,2.75-2.25,5-5,5-2.76001,0-5-2.25-5-5ZM13.95999,39.36496c-2.75,0-5-2.23999-5-5s2.25-5,5-5c2.76001,0,5,2.24005,5,5s-2.23999,5-5,5ZM23.53,36.24496l-2.65997-.81995c.06-.34003.08997-.70001.08997-1.06006,0-1.20996-.31-2.35999-.84998-3.34998l3.98999,1.22003-.57001,4.00995Z"/>
  <path d="M10.04001,50.035h-2c-.55273,0-1,.44775-1,1s.44727,1,1,1h2c.55273,0,1-.44775,1-1s-.44727-1-1-1Z"/>
  <path d="M29.36618,21.96176c1.6543,0,3-1.3457,3-3s-1.3457-3-3-3-3,1.3457-3,3,1.3457,3,3,3ZM29.36618,17.96176c.55176,0,1,.44873,1,1s-.44824,1-1,1-1-.44873-1-1,.44824-1,1-1Z"/>
  <path d="M13.96286,31.36557c-1.6543,0-3,1.3457-3,3s1.3457,3,3,3,3-1.3457,3-3-1.3457-3-3-3ZM13.96286,35.36557c-.55176,0-1-.44873-1-1s.44824-1,1-1,1,.44873,1,1-.44824,1-1,1Z"/>
</svg>