<svg id="Capa_1" enable-background="new 0 0 511 511" height="512" viewBox="0 0 511 511" width="512" xmlns="http://www.w3.org/2000/svg"><g><path d="m479.5 136.006h-104v15h104c9.098 0 16.5 7.402 16.5 16.5v175.988c0 9.098-7.402 16.5-16.5 16.5h-16.5v-111.994h-55v111.994h-17v-111.994h-55v111.994h-17v-111.994h-55v111.994h-17v-111.994h-55v111.994h-17v-111.994h-55v111.994h-17v-111.994h-55v111.994h-16.5c-9.098 0-16.5-7.402-16.5-16.5v-79.994h-15v79.994c0 17.369 14.131 31.5 31.5 31.5h31.5v-111.994h25v111.994h47v-111.994h25v111.994h47v-111.994h25v111.994h47v-111.994h25v111.994h47v-111.994h25v111.994h47v-111.994h25v111.994h31.5c17.369 0 31.5-14.131 31.5-31.5v-175.988c0-17.369-14.131-31.5-31.5-31.5z"/><path d="m15 167.506c0-9.098 7.402-16.5 16.5-16.5h328v-15h-328c-17.369 0-31.5 14.131-31.5 31.5v79.994h15z"/><path d="m39.5 168h432v15h-432z"/><path d="m231.5 208h16v15h-16z"/><path d="m263.5 208h16v15h-16z"/></g></svg>