<svg id="Capa_1" enable-background="new 0 0 511 511" height="512" viewBox="0 0 511 511" width="512" xmlns="http://www.w3.org/2000/svg"><g><path d="m231.5 384h16v15h-16z"/><path d="m263.5 384h16v15h-16z"/><path d="m254.26 335h2.48c5.177 0 10.292-.568 15.302-1.666.428 14.181 6.137 27.452 16.213 37.529l19.941 19.941 10.607-10.606-19.941-19.941c-7.649-7.649-11.862-17.82-11.862-28.638v-10.011l45.196 45.197 10.607-10.606-70.803-70.805v32.508c-4.958 1.394-10.071 2.099-15.26 2.099h-2.48c-17.258 0-33.338-7.729-44.119-21.205l-16.735-20.919c-17.028-21.286-26.406-48.019-26.406-75.277v-11.874c6.223-.448 12.296-1.446 18.17-2.95l1.997 1.997c5.95 5.95 13.86 9.226 22.274 9.226h30.059v-15h-30.059c-2.776 0-5.446-.684-7.822-1.966 24.402-10.915 43.832-31.008 53.88-55.865 10.048 24.856 29.479 44.949 53.88 55.865-2.376 1.283-5.046 1.966-7.822 1.966h-30.057v15h30.059c8.414 0 16.324-3.276 22.274-9.226l1.997-1.997c5.873 1.504 11.946 2.502 18.17 2.95v11.874c0 27.258-9.378 53.991-26.405 75.276l-11.951 14.939 11.713 9.37 11.951-14.939c11.456-14.32 19.83-30.835 24.71-48.356 5.096-.405 9.854-2.022 13.982-4.572v21.182c0 25.797-17.423 48.299-42.369 54.721l3.738 14.526c31.577-8.127 53.631-36.603 53.631-69.247v-128c0-70.304-57.196-127.5-127.5-127.5s-127.5 57.196-127.5 127.5v257.308l-83.17 31.684 5.34 14.018 172.83-65.842v-36.825c9.594 4.662 20.236 7.157 31.26 7.157zm-100.719-112.131c-6.158-2.396-10.541-8.374-10.541-15.369 0-6.396 3.666-11.941 9-14.678v9.779c0 6.805.523 13.581 1.541 20.268zm203.918 0c1.019-6.687 1.541-13.463 1.541-20.269v-9.779c5.334 2.737 9 8.282 9 14.678 0 6.996-4.383 12.974-10.541 15.37zm-101.959-207.869c62.033 0 112.5 50.467 112.5 112.5v53.181c-4.802-2.965-10.454-4.681-16.5-4.681-48.799 0-88.5-39.701-88.5-88.5h-15c0 48.799-39.701 88.5-88.5 88.5-6.046 0-11.698 1.716-16.5 4.681v-53.181c0-62.033 50.467-112.5 112.5-112.5zm-47.5 339.332-65 24.762v-144.775c4.128 2.549 8.886 4.166 13.982 4.572 4.881 17.521 13.254 34.036 24.71 48.356l16.735 20.919c2.903 3.629 6.112 6.925 9.572 9.871v36.295z"/><path d="m438.723 422.087 22.107 8.422 5.34-14.018-70.281-26.773 18.856-18.856c10.483-10.482 16.255-24.419 16.255-39.244v-46.224l-132.018 132.017c-3.679-.917-7.523-1.411-11.482-1.411-26.191 0-47.5 21.309-47.5 47.5s21.309 47.5 47.5 47.5 47.5-21.309 47.5-47.5c0-3.959-.494-7.803-1.411-11.482l17.911-17.911 17.911 17.911c-.917 3.679-1.411 7.523-1.411 11.482 0 26.191 21.309 47.5 47.5 47.5s47.5-21.309 47.5-47.5c0-17.76-9.803-33.264-24.277-41.413zm-34.705-4.676-13.803-13.803 35.41 13.489c-3.265-.712-6.65-1.097-10.125-1.097-3.959 0-7.803.494-11.482 1.411zm-116.518 78.589c-17.921 0-32.5-14.58-32.5-32.5s14.579-32.5 32.5-32.5 32.5 14.58 32.5 32.5-14.579 32.5-32.5 32.5zm26.201-72.094 102.299-102.3v10.011c0 10.818-4.213 20.989-11.862 28.638l-77.044 77.043c-3.525-5.307-8.085-9.867-13.393-13.392zm62.205 13.393-13.799-13.799 13.393-13.393 13.799 13.799c-5.308 3.525-9.868 8.085-13.393 13.393zm39.594 58.701c-17.921 0-32.5-14.58-32.5-32.5s14.579-32.5 32.5-32.5 32.5 14.58 32.5 32.5-14.579 32.5-32.5 32.5z"/><path d="m415.5 440c-12.958 0-23.5 10.542-23.5 23.5s10.542 23.5 23.5 23.5 23.5-10.542 23.5-23.5-10.542-23.5-23.5-23.5zm0 32c-4.687 0-8.5-3.813-8.5-8.5s3.813-8.5 8.5-8.5 8.5 3.813 8.5 8.5-3.813 8.5-8.5 8.5z"/><path d="m287.5 440c-12.958 0-23.5 10.542-23.5 23.5s10.542 23.5 23.5 23.5 23.5-10.542 23.5-23.5-10.542-23.5-23.5-23.5zm0 32c-4.687 0-8.5-3.813-8.5-8.5s3.813-8.5 8.5-8.5 8.5 3.813 8.5 8.5-3.813 8.5-8.5 8.5z"/></g></svg>