<svg id="Capa_1" enable-background="new 0 0 511 511" height="512" viewBox="0 0 511 511" width="512" xmlns="http://www.w3.org/2000/svg"><g><path d="m199 95.5c0-.275.224-.5.5-.5h112c.276 0 .5.225.5.5v16h15v-16c0-8.547-6.953-15.5-15.5-15.5h-16.5v-33h32v-47h-87.5c-12.958 0-23.5 10.542-23.5 23.5v56.5h-16.5c-8.547 0-15.5 6.953-15.5 15.5v16h15zm32-72c0-4.687 3.813-8.5 8.5-8.5h72.5v17h-32v48h-49z"/><path d="m327 216h-143v207h143zm-15 192h-113v-177h113z"/><path d="m351.5 128h-192c-12.958 0-23.5 10.542-23.5 23.5v336c0 12.958 10.542 23.5 23.5 23.5h192c12.958 0 23.5-10.542 23.5-23.5v-336c0-12.958-10.542-23.5-23.5-23.5zm-192 15h192c4.687 0 8.5 3.813 8.5 8.5v8.5h-209v-8.5c0-4.687 3.813-8.5 8.5-8.5zm192 353h-192c-4.687 0-8.5-3.813-8.5-8.5v-312.5h209v289h-192.5v15h192.5v8.5c0 4.687-3.813 8.5-8.5 8.5z"/><path d="m231.5 312h16v15h-16z"/><path d="m263.5 312h16v15h-16z"/></g></svg>