<svg id="Capa_1" enable-background="new 0 0 511 511" height="512" viewBox="0 0 511 511" width="512" xmlns="http://www.w3.org/2000/svg"><g><path d="m221.085 384h16v15h-16z"/><path d="m253.085 384h16v15h-16z"/><path d="m413.585 377.066h15v68.487h-15z" transform="matrix(.356 -.935 .935 .356 -113.183 658.385)"/><path d="m406.691 328 4.25-17h18.145v-15h-29.855l-8.001 32h-18.644v-200.5c0-70.304-57.196-127.5-127.5-127.5s-127.5 57.196-127.5 127.5v257.307l-83.17 31.684 5.34 14.018 172.83-65.84v-36.825c9.594 4.661 20.236 7.156 31.26 7.156h2.48c2.125 0 4.236-.095 6.328-.278-4.357 4.268-7.068 10.211-7.068 16.778 0 12.958 10.542 23.5 23.5 23.5h8.5v30.858c-4.899 4.31-8 10.619-8 17.642 0 11.018 7.623 20.285 17.871 22.814-1.204 2.823-1.871 5.928-1.871 9.186 0 11.018 7.623 20.285 17.871 22.814-1.204 2.823-1.871 5.928-1.871 9.186 0 12.958 10.542 23.5 23.5 23.5h64c12.958 0 23.5-10.542 23.5-23.5 0-11.018-7.623-20.285-17.871-22.814 1.204-2.823 1.871-5.928 1.871-9.186 0-11.018-7.623-20.285-17.871-22.814 1.204-2.823 1.871-5.928 1.871-9.186 0-7.023-3.101-13.332-8-17.642v-30.858h104v-47zm-114.106 0v-9.963c3.46-2.946 6.669-6.242 9.572-9.871l16.735-20.92c11.456-14.32 19.83-30.834 24.711-48.356 5.095-.405 9.854-2.022 13.982-4.571v93.681zm65 15v17h-65v-17zm-9-150.178c5.334 2.737 9 8.282 9 14.678 0 6.995-4.383 12.973-10.541 15.369 1.019-6.688 1.541-13.463 1.541-20.27zm-103.5-177.822c62.033 0 112.5 50.467 112.5 112.5v53.181c-4.802-2.965-10.454-4.681-16.5-4.681-48.799 0-88.5-39.701-88.5-88.5h-15c0 48.799-39.701 88.5-88.5 88.5-6.046 0-11.698 1.716-16.5 4.681v-53.181c0-62.033 50.467-112.5 112.5-112.5zm-101.959 207.869c-6.158-2.396-10.541-8.374-10.541-15.369 0-6.396 3.666-11.941 9-14.678v9.778c0 6.806.523 13.582 1.541 20.269zm54.459 131.462-65 24.762v-144.774c4.128 2.549 8.886 4.166 13.982 4.571 4.881 17.521 13.254 34.036 24.71 48.356l16.735 20.92c2.903 3.629 6.112 6.925 9.572 9.871v36.294zm46.26-34.331c-17.257 0-33.338-7.729-44.119-21.205l-16.735-20.92c-17.028-21.284-26.405-48.018-26.405-75.275v-11.873c6.223-.448 12.297-1.446 18.17-2.95l1.998 1.998c5.949 5.949 13.86 9.226 22.273 9.226h30.059v-15h-30.059c-2.776 0-5.446-.683-7.822-1.966 24.402-10.915 43.833-31.008 53.881-55.865 10.048 24.856 29.479 44.95 53.881 55.865-2.376 1.283-5.046 1.966-7.822 1.966h-30.059v15h30.059c8.414 0 16.324-3.276 22.274-9.226l1.998-1.998c5.873 1.504 11.946 2.501 18.169 2.95v11.873c0 27.259-9.378 53.992-26.405 75.275l-16.735 20.92c-10.783 13.476-26.863 21.205-44.121 21.205zm25.24 40c-4.687 0-8.5-3.813-8.5-8.5s3.813-8.5 8.5-8.5h8.5v17zm15.5 63.5c0-4.687 3.813-8.5 8.5-8.5s8.5 3.813 8.5 8.5-3.813 8.5-8.5 8.5-8.5-3.813-8.5-8.5zm81 0c0 4.687-3.813 8.5-8.5 8.5h-42.097c1.027-2.638 1.597-5.503 1.597-8.5s-.57-5.862-1.597-8.5h42.097c4.686 0 8.5 3.813 8.5 8.5zm-65 32c0-4.687 3.813-8.5 8.5-8.5s8.5 3.813 8.5 8.5-3.813 8.5-8.5 8.5-8.5-3.813-8.5-8.5zm16 32c0-4.687 3.813-8.5 8.5-8.5s8.5 3.813 8.5 8.5-3.813 8.5-8.5 8.5-8.5-3.813-8.5-8.5zm81 0c0 4.687-3.813 8.5-8.5 8.5h-42.097c1.027-2.638 1.597-5.503 1.597-8.5s-.57-5.862-1.597-8.5h42.097c4.686 0 8.5 3.813 8.5 8.5zm-16-32c0 4.687-3.813 8.5-8.5 8.5h-42.097c1.027-2.638 1.597-5.503 1.597-8.5s-.57-5.862-1.597-8.5h42.097c4.686 0 8.5 3.813 8.5 8.5zm-24-55.487c-.167-.003-.332-.013-.5-.013h-64c-.168 0-.333.009-.5.013v-25.013h65zm15-57.013h17v17h-17zm89 17h-57v-17h57z"/></g></svg>