<svg id="Capa_1" enable-background="new 0 0 511 511" height="512" viewBox="0 0 511 511" width="512" xmlns="http://www.w3.org/2000/svg"><g><path d="m463.5 164h-146.595l-26.644-79.932c-3.203-9.61-12.162-16.068-22.293-16.068h-124.468c-12.958 0-23.5 10.542-23.5 23.5s10.542 23.5 23.5 23.5h96.5v26.598c-2.638-1.028-5.503-1.598-8.5-1.598-12.958 0-23.5 10.542-23.5 23.5v8.5h-136.5c-19.216 0-35.262 13.795-38.777 32h-9.223c-12.958 0-23.5 10.542-23.5 23.5v96c0 12.958 10.542 23.5 23.5 23.5h88c4.687 0 8.5 3.813 8.5 8.5v32c0 12.958 10.542 23.5 23.5 23.5h88.5v8.5c0 12.958 10.542 23.5 23.5 23.5h39.5v-16h32.5v-15h-32.5v-17h32.5v-15h-32.5v-16h-39.5c-12.958 0-23.5 10.542-23.5 23.5v8.5h-88.5c-4.687 0-8.5-3.813-8.5-8.5v-32c0-12.958-10.542-23.5-23.5-23.5h-88c-4.687 0-8.5-3.813-8.5-8.5v-96c0-4.687 3.813-8.5 8.5-8.5h9.223c3.515 18.205 19.561 32 38.777 32h136.5v8.5c0 12.958 10.542 23.5 23.5 23.5s23.5-10.542 23.5-23.5v-48.5h88.5v-15h-88.5v-96h-72v-17h84.968c3.664 0 6.904 2.336 8.063 5.812l30.064 90.188h117.405c4.687 0 8.5 3.813 8.5 8.5s-3.813 8.5-8.5 8.5h-64v15h64c12.958 0 23.5-10.542 23.5-23.5 0-2.997-.57-5.862-1.597-8.5h18.097c17.921 0 32.5 14.579 32.5 32.5s-14.579 32.5-32.5 32.5h-192v15h192c26.191 0 47.5-21.309 47.5-47.5s-21.309-47.5-47.5-47.5zm-216.5 223.5c0-4.687 3.813-8.5 8.5-8.5h24.5v49h-24.5c-4.687 0-8.5-3.813-8.5-8.5zm-83.128-151.5h-92.372c-13.51 0-24.5-10.99-24.5-24.5s10.99-24.5 24.5-24.5h92.372c-5.179 15.277-5.179 33.723 0 49zm44.128 0h-27.995c-6.631-14.191-6.631-34.809 0-49h27.995zm32 23.5c0 4.687-3.813 8.5-8.5 8.5s-8.5-3.813-8.5-8.5v-96c0-4.687 3.813-8.5 8.5-8.5s8.5 3.813 8.5 8.5zm-72-159.5h-24.5c-4.687 0-8.5-3.813-8.5-8.5s3.813-8.5 8.5-8.5h24.5z"/><path d="m287.5 220h16v15h-16z"/><path d="m319.5 220h16v15h-16z"/></g></svg>