<svg id="Capa_1" enable-background="new 0 0 511 511" height="512" viewBox="0 0 511 511" width="512" xmlns="http://www.w3.org/2000/svg"><g><path d="m448 409.086c-7.134-10.313-19.039-17.086-32.5-17.086s-25.366 6.773-32.5 17.086v-17.586h-15v24c0 12.958 10.542 23.5 23.5 23.5h48c12.958 0 23.5-10.542 23.5-23.5v-24h-15zm-32.5-2.086c10.894 0 20.146 7.148 23.321 17h-46.643c3.176-9.852 12.428-17 23.322-17z"/><path d="m320 72v40.197l7.588 40.469c-8.719-10.189-21.658-16.666-36.088-16.666h-10.11c10.826-10.135 17.61-24.536 17.61-40.5v-7.5h-155.5c-10.422 0-21.172 4.069-29.494 11.166-9.031 7.702-14.006 17.765-14.006 28.334v8.5h-.5c-12.958 0-23.5 10.542-23.5 23.5 0 4.041 1.025 7.846 2.829 11.17-11.075 4.887-18.829 15.967-18.829 28.83 0 6.046 1.716 11.698 4.681 16.5h-64.681v47h16.166c3.949 97.717 84.665 176 183.334 176 69.228 0 132.005-39.071 163.139-99.395l6.636 35.395h92.449l49.146-262.118.129-.685v-40.197zm176 15v17h-161v-17zm-159.463 32h157.926l-39.188 209h-79.551zm2.926 97h-13.369c4.49-4.776 8.003-10.476 10.222-16.784zm-264.463-16.5c0-9.098 7.402-16.5 16.5-16.5h116v-15h-108c-4.687 0-8.5-3.813-8.5-8.5s3.813-8.5 8.5-8.5h68v-15h-52.5v-8.5c0-13.798 15.32-24.5 28.5-24.5h139.804c-3.527 18.76-20.034 33-39.804 33h-36v15h84c17.921 0 32.5 14.579 32.5 32.5s-14.579 32.5-32.5 32.5h-200c-9.098 0-16.5-7.402-16.5-16.5zm124.5 224.5c-90.397 0-164.386-71.556-168.324-161h208.324v-15h-224.5v-17h327.275l3.188 17h-89.963v15h92.775l9.469 50.502c-24.254 66.175-87.588 110.498-158.244 110.498zm182.225-64-3.188-17h73.926l-3.188 17z"/><path d="m415.5 184c-21.78 0-39.5 17.72-39.5 39.5s17.72 39.5 39.5 39.5 39.5-17.72 39.5-39.5-17.72-39.5-39.5-39.5zm0 64c-13.51 0-24.5-10.99-24.5-24.5s10.99-24.5 24.5-24.5 24.5 10.99 24.5 24.5-10.99 24.5-24.5 24.5z"/><path d="m175.5 312h16v15h-16z"/><path d="m207.5 312h16v15h-16z"/></g></svg>