<svg id="Capa_1" enable-background="new 0 0 511.5 511.5" height="512" viewBox="0 0 511.5 511.5" width="512" xmlns="http://www.w3.org/2000/svg"><g><path d="m438.815 474.821-12.676-76.055-14.796 2.467 12.676 76.055c.799 4.793-.544 9.669-3.686 13.377s-7.73 5.835-12.59 5.835h-63.657c19.988-21.853 31.163-50.295 31.163-80.5 0-65.893-53.607-119.5-119.5-119.5-24.584 0-48.199 7.407-68.291 21.422l8.581 12.303c17.562-12.25 38.21-18.725 59.71-18.725 57.622 0 104.5 46.879 104.5 104.5 0 31.358-13.772 60.549-37.87 80.5h-27.466c11.865-10.653 19.336-26.058 19.336-43.167 0-29.482-46.985-97.909-52.342-105.614l-6.158-8.856-6.158 8.856c-5.357 7.705-52.342 76.132-52.342 105.614 0 17.109 7.471 32.514 19.336 43.167h-27.465c-24.098-19.951-37.87-49.142-37.87-80.5 0-28.316 11.138-54.825 31.362-74.644l-10.498-10.713c-23.127 22.663-35.864 52.977-35.864 85.357 0 30.205 11.175 58.647 31.163 80.5h-63.657c-4.86 0-9.449-2.127-12.59-5.835s-4.484-8.584-3.686-13.377l41.114-246.687c.686-4.115 4.212-7.102 8.384-7.102h237.542c4.172 0 7.698 2.986 8.384 7.103l25.772 154.631 14.796-2.467-25.772-154.63c-1.896-11.379-11.645-19.637-23.18-19.637h-24.804c6.988-4.26 13.519-9.38 19.454-15.314l32.686-32.686h-292.213l32.686 32.685c5.935 5.935 12.466 11.055 19.454 15.315h-24.805c-11.536 0-21.284 8.258-23.18 19.636l-41.113 246.686c-1.525 9.152 1.04 18.461 7.036 25.54 5.997 7.079 14.757 11.139 24.035 11.139h303.988c9.278 0 18.038-4.06 24.035-11.139s8.562-16.387 7.036-25.54zm-285.879-292.243-7.079-7.078h219.786l-7.079 7.078c-16.715 16.716-38.939 25.922-62.579 25.922h-80.471c-23.639 0-45.863-9.206-62.578-25.922zm81.981 293.274c0-7.508 10.77-27.1 20.833-42.778 10.064 15.679 20.833 35.271 20.833 42.778 0 11.386-9.346 20.648-20.833 20.648s-20.833-9.263-20.833-20.648zm-22.667-22.519c0-18.364 27.378-63.579 43.5-87.95 16.122 24.371 43.5 69.586 43.5 87.95 0 9.102-2.861 17.549-7.726 24.519.037-.663.06-1.329.06-2 0-17.034-24.72-53.45-29.676-60.577l-6.158-8.856-6.158 8.856c-4.956 7.127-29.676 43.543-29.676 60.577 0 .671.023 1.337.06 2-4.865-6.97-7.726-15.417-7.726-24.519z"/><path d="m240.25 128h15c0-8.167 2.727-11.803 6.5-16.834 4.232-5.644 9.5-12.667 9.5-25.835 0-13.167-5.268-20.19-9.5-25.834-3.773-5.031-6.5-8.667-6.5-16.834 0-8.166 2.727-11.801 6.5-16.832 4.232-5.643 9.5-12.665 9.5-25.831h-15c0 8.165-2.727 11.8-6.5 16.831-4.233 5.643-9.5 12.666-9.5 25.832 0 13.167 5.268 20.19 9.5 25.834 3.773 5.031 6.5 8.667 6.5 16.834 0 8.168-2.727 11.804-6.5 16.835-4.232 5.644-9.5 12.667-9.5 25.834z"/><path d="m176.25 128h15c0-6.56 2.464-9.435 6.195-13.787 4.369-5.097 9.805-11.44 9.805-23.548s-5.437-18.452-9.806-23.549c-3.73-4.352-6.194-7.228-6.194-13.786s2.464-9.433 6.194-13.784c4.369-5.096 9.806-11.438 9.806-23.546h-15c0 6.558-2.464 9.433-6.194 13.784-4.369 5.096-9.806 11.438-9.806 23.546s5.437 18.451 9.805 23.548c3.73 4.353 6.195 7.228 6.195 13.787s-2.464 9.435-6.194 13.786c-4.369 5.097-9.806 11.441-9.806 23.549z"/><path d="m304.25 128h15c0-6.56 2.464-9.435 6.195-13.787 4.369-5.097 9.805-11.44 9.805-23.548s-5.437-18.452-9.806-23.549c-3.73-4.352-6.194-7.228-6.194-13.786s2.464-9.433 6.194-13.784c4.369-5.096 9.806-11.438 9.806-23.546h-15c0 6.558-2.464 9.433-6.194 13.784-4.369 5.096-9.806 11.438-9.806 23.546s5.437 18.451 9.805 23.548c3.73 4.353 6.195 7.228 6.195 13.787s-2.464 9.435-6.194 13.786c-4.369 5.097-9.806 11.441-9.806 23.549z"/><path d="m231.75 256.5h16v15h-16z"/><path d="m263.75 256.5h16v15h-16z"/></g></svg>