<svg id="Capa_1" enable-background="new 0 0 511 511" height="512" viewBox="0 0 511 511" width="512" xmlns="http://www.w3.org/2000/svg"><g><path d="m87 15h193v112h112v128.5h15v-139.106l-116.394-116.394h-218.606v479h167.5v-15h-152.5zm208 10.606 86.394 86.394h-86.394z"/><path d="m392.147 341.359c2.598-1.668 5.071-3.607 7.338-5.874 19.784-19.785 15.099-54.988 14.89-56.477l-.786-5.598-5.598-.786c-1.489-.21-36.691-4.895-56.477 14.89-5.334 5.335-8.879 11.792-11.222 18.406-12.62-20.34-35.146-33.92-60.792-33.92v15c29.396 0 53.61 22.569 56.25 51.288-5.3-1.509-10.732-2.288-16.25-2.288-39.425 0-71.5 39.252-71.5 87.5s32.075 87.5 71.5 87.5c8.243 0 16.3-1.698 24-5.052 7.7 3.354 15.757 5.052 24 5.052 39.425 0 71.5-39.252 71.5-87.5 0-37.653-19.535-69.826-46.853-82.141zm-30.025-43.237c10.45-10.45 28.51-11.369 37.826-11.071.307 9.331-.621 27.379-11.07 37.827-10.45 10.451-28.503 11.378-37.826 11.071-.307-9.331.621-27.379 11.07-37.827zm5.378 197.878c-7.085 0-14.02-1.692-20.612-5.029l-3.388-1.715-3.388 1.715c-6.592 3.337-13.527 5.029-20.612 5.029-31.154 0-56.5-32.523-56.5-72.5s25.346-72.5 56.5-72.5c7.085 0 14.02 1.692 20.612 5.029l3.388 1.715 3.388-1.715c6.592-3.337 13.527-5.029 20.612-5.029 31.154 0 56.5 32.523 56.5 72.5s-25.346 72.5-56.5 72.5z"/><path d="m103.5 88h96v15h-96z"/><path d="m103.5 56h160v15h-160z"/><path d="m103.5 168h272v15h-272z"/><path d="m103.5 200h224v15h-224z"/><path d="m103.5 232h240v15h-240z"/><path d="m103.5 264h160v15h-160z"/><path d="m103.5 296h176v15h-176z"/><path d="m319.5 416h16v15h-16z"/><path d="m351.5 416h16v15h-16z"/></g></svg>