<svg id="Capa_1" enable-background="new 0 0 511.011 511.011" height="512" viewBox="0 0 511.011 511.011" width="512" xmlns="http://www.w3.org/2000/svg"><g><path d="m231.006 200.011h-143v88h-16v199.5c0 12.958 10.542 23.5 23.5 23.5h128c12.958 0 23.5-10.542 23.5-23.5v-199.5h-16zm-128 15h113v73h-113zm120.5 281h-128c-4.687 0-8.5-3.813-8.5-8.5v-8.5h145v8.5c0 4.687-3.814 8.5-8.5 8.5zm8.5-193v161h-145v-161z"/><path d="m104.006 84.491v99.021h15v-74.643c3.451 1.429 7.352 2.155 11.627 2.154 4.912 0 10.313-.951 16.069-2.87 13.243-4.414 27.296-13.604 39.569-25.877 5.17-5.17 9.785-10.658 13.734-16.267v117.502h15v-156.276c.004-.236.001-.469 0-.703v-3.021h-.142c-.573-6.515-2.952-12.047-7.131-16.226-.001-.001 0 0-.001-.001-7.845-7.844-20.424-9.414-35.422-4.415-13.243 4.414-27.296 13.604-39.569 25.877-12.272 12.272-21.462 26.325-25.876 39.568-1.807 5.42-2.743 10.518-2.847 15.196h-.011v.276c-.004.238-.001.471 0 .705zm39.34-45.138c10.658-10.658 22.629-18.561 33.706-22.254 4.221-1.406 8.046-2.106 11.295-2.106 3.824 0 6.85.971 8.777 2.898l.001.001c1.778 1.778 2.741 4.489 2.88 7.9v1.63c-.098 3.082-.788 6.641-2.088 10.542-3.693 11.077-11.596 23.048-22.253 33.705-10.658 10.658-22.629 18.561-33.706 22.254-9.188 3.062-16.507 2.774-20.073-.793-1.778-1.778-2.741-4.489-2.88-7.9v-1.63c.098-3.082.788-6.641 2.088-10.542 3.694-11.077 11.596-23.048 22.253-33.705z"/><path d="m439.006 399.511v-88c0-12.958-10.542-23.5-23.5-23.5h-128c-12.958 0-23.5 10.542-23.5 23.5v199.5h175v-95.5h-15v80.5h-145v-161h145v64.5zm-160-79.5v-8.5c0-4.687 3.813-8.5 8.5-8.5h128c4.687 0 8.5 3.813 8.5 8.5v8.5z"/><path d="m327.506 400.011h16v15h-16z"/><path d="m359.506 400.011h16v15h-16z"/></g></svg>