<svg id="Capa_1" enable-background="new 0 0 511.022 511.022" height="512" viewBox="0 0 511.022 511.022" width="512" xmlns="http://www.w3.org/2000/svg"><g><path d="m225.839 384.022h16v15h-16z"/><path d="m257.839 384.022h16v15h-16z"/><path d="m269.178 85.467 78.716 78.716 36.341-72.683 44.679-58.93c6.433-7.982 5.827-19.429-1.434-26.689-7.261-7.262-18.709-7.865-26.688-1.435l-58.93 44.679zm99.535 3.536-8.929 17.857-33.284-33.284 17.857-8.929zm-24.929 49.858-49.284-49.285 17.858-8.929 40.355 40.355zm66.168-122.537.219-.172c1.996-1.633 4.878-1.49 6.703.335 1.824 1.824 1.968 4.706.334 6.703l-40.148 52.946-19.835-19.835z"/><path d="m471.853 416.022h-31.064c5.346-6.739 8.551-15.25 8.551-24.5v-7.5h-72v-224.5h-15v21.181c-4.802-2.965-10.454-4.681-16.5-4.681-48.799 0-88.5-39.701-88.5-88.5h-15c0 48.799-39.701 88.5-88.5 88.5-6.046 0-11.698 1.716-16.5 4.681v-53.181c0-62.033 50.467-112.5 112.5-112.5 27.725 0 54.36 10.173 74.998 28.644l10.004-11.177c-23.393-20.937-53.58-32.467-85.002-32.467-70.304 0-127.5 57.196-127.5 127.5v257.308l-83.17 31.684 5.34 14.018 172.83-65.84v-36.825c9.594 4.661 20.236 7.157 31.26 7.157h2.48c11.023 0 21.666-2.495 31.26-7.157v36.825l28.83 10.983 5.34-14.018-19.17-7.303v-36.295c3.46-2.946 6.669-6.242 9.572-9.871l16.735-20.919c11.456-14.32 19.83-30.835 24.71-48.356 5.096-.405 9.854-2.022 13.982-4.572v149.681h-16.5c-19.216 0-35.262 13.795-38.777 32h-23.237l38.514 57.771v37.229h110.921v-37.111zm-325.514-223.179v9.779c0 6.806.523 13.582 1.541 20.269-6.158-2.396-10.541-8.374-10.541-15.369 0-6.396 3.666-11.942 9-14.679zm56 161.51-65 24.762v-144.775c4.128 2.549 8.886 4.166 13.982 4.572 4.881 17.521 13.254 34.036 24.71 48.356l16.735 20.919c2.903 3.629 6.112 6.925 9.572 9.871v36.295zm109.595-76.455-16.735 20.919c-10.781 13.476-26.861 21.205-44.119 21.205h-2.48c-17.258 0-33.338-7.729-44.119-21.205l-16.735-20.919c-17.027-21.285-26.405-48.018-26.405-75.276v-11.874c6.223-.448 12.296-1.446 18.17-2.95l1.997 1.997c5.95 5.95 13.86 9.226 22.274 9.226h30.059v-15h-30.061c-2.776 0-5.446-.684-7.822-1.966 24.402-10.915 43.832-31.008 53.88-55.865 10.048 24.856 29.479 44.949 53.88 55.865-2.376 1.283-5.046 1.966-7.822 1.966h-30.059v15h30.059c8.414 0 16.324-3.276 22.274-9.226l1.997-1.997c5.873 1.504 11.946 2.502 18.17 2.95v11.874c.002 27.258-9.376 53.991-26.403 75.276zm39.864-55.007c1.019-6.687 1.541-13.463 1.541-20.269v-9.779c5.334 2.737 9 8.282 9 14.678 0 6.996-4.383 12.973-10.541 15.37zm-5.959 176.131h87.326c-3.175 9.853-12.432 17-23.326 17h-87.326c3.175-9.853 12.431-17 23.326-17zm97.986 32-22 33h-87.973l-22-33zm-25.565 65h-80.921v-17h80.921z"/></g></svg>