<svg id="Capa_1" enable-background="new 0 0 511 511" height="512" viewBox="0 0 511 511" width="512" xmlns="http://www.w3.org/2000/svg"><g><path d="m219.569 184.823-23.911 23.911c-8.941-10.473-22.151-16.734-36.158-16.734-26.191 0-47.5 21.309-47.5 47.5s21.309 47.5 47.5 47.5c5.919 0 11.666-1.078 17.122-3.19 4.141 2.081 8.737 3.19 13.506 3.19 8.047 0 15.613-3.134 21.304-8.824l50.745-50.745c11.746-11.747 11.745-30.86-.001-42.607-11.749-11.748-30.86-11.746-42.607-.001zm-60.069 87.177c-15.339 0-28.221-10.685-31.617-25h33.77c-1.084 3.134-1.653 6.459-1.653 9.872 0 5.282 1.358 10.353 3.895 14.826-1.447.195-2.912.302-4.395.302zm-31.617-40c3.396-14.315 16.278-25 31.617-25 9.991 0 19.395 4.654 25.511 12.382l-12.618 12.618zm72.941 35.568c-2.857 2.857-6.656 4.432-10.696 4.432-4.041 0-7.84-1.574-10.697-4.432-2.856-2.856-4.431-6.655-4.431-10.696 0-4.04 1.574-7.839 4.432-10.696l20.067-20.067 21.393 21.393zm50.745-72.136c5.898 5.897 5.898 15.494 0 21.392l-20.071 20.071-21.393-21.393 20.071-20.071c2.948-2.949 6.821-4.424 10.695-4.424s7.749 1.475 10.698 4.425z"/><path d="m319.5 240c-72.198 0-131.383 56.76-135.289 128h-96.711c-9.098 0-16.5-7.402-16.5-16.5v-32.5h112.5v-15h-112.5v-145h241v64.5h15v-112c0-17.369-14.131-31.5-31.5-31.5h-16.5v-17h16v-47.5c0-8.547-6.953-15.5-15.5-15.5h-176c-8.547 0-15.5 6.953-15.5 15.5v47.5h16v17h-16.5c-17.369 0-31.5 14.131-31.5 31.5v240c0 17.369 14.131 31.5 31.5 31.5h96.711c3.906 71.24 63.091 128 135.289 128 74.715 0 135.5-60.785 135.5-135.5s-60.785-135.5-135.5-135.5zm-216.5-192v-32.5c0-.275.225-.5.5-.5h176c.275 0 .5.225.5.5v32.5zm161 15v17h-145v-17zm-193 48.5c0-9.098 7.402-16.5 16.5-16.5h208c9.098 0 16.5 7.402 16.5 16.5v32.5h-241zm256 384.26v-48.823c14.964-.509 47.858-4.253 69.771-26.165h.001c28.517-28.517 26.264-75.631 26.153-77.622l-.369-6.706-6.706-.369c-1.99-.105-49.105-2.361-77.621 26.153-8.915 8.915-14.822 19.647-18.729 30.25-3.906-10.603-9.814-21.335-18.729-30.25-28.517-28.516-75.631-26.263-77.621-26.153l-6.706.369-.369 6.706c-.11 1.991-2.363 49.105 26.153 77.622 21.915 21.914 54.811 25.656 69.771 26.165v48.823c-62.963-3.886-113-56.335-113-120.26 0-66.444 54.056-120.5 120.5-120.5s120.501 54.056 120.501 120.5c0 63.925-50.037 116.374-113 120.26zm35.196-109.564-34.042 34.042c1.952-14.335 7.134-33.855 20.682-47.404 17.821-17.821 45.985-21.172 59.07-21.728-.533 13.073-3.853 41.169-21.742 59.058-13.548 13.545-33.069 18.729-47.403 20.681l34.042-34.042zm-61.957 44.65c-14.336-1.952-33.856-7.134-47.403-20.681-17.815-17.814-21.171-45.964-21.728-59.057 13.098.558 41.243 3.914 59.056 21.728 13.549 13.549 18.731 33.069 20.683 47.403l-34.043-34.043-10.607 10.607z"/><path d="m295.5 312h16v15h-16z"/><path d="m327.5 312h16v15h-16z"/></g></svg>