<svg id="Capa_1" enable-background="new 0 0 511 511" height="512" viewBox="0 0 511 511" width="512" xmlns="http://www.w3.org/2000/svg"><g><path d="m344.598 160h-192c-12.958 0-23.5 10.542-23.5 23.5v304c0 12.958 10.542 23.5 23.5 23.5h192c12.958 0 23.5-10.542 23.5-23.5v-304c0-12.958-10.542-23.5-23.5-23.5zm-192 15h192c4.687 0 8.5 3.813 8.5 8.5v8.5h-209v-8.5c0-4.687 3.813-8.5 8.5-8.5zm192 321h-192c-4.687 0-8.5-3.813-8.5-8.5v-280.5h209v257h-192.5v15h192.5v8.5c0 4.687-3.813 8.5-8.5 8.5z"/><path d="m347.705 0h-171.107v15h32.5v48h8v33h-8.5c-8.547 0-15.5 6.953-15.5 15.5v32h15v-32c0-.275.224-.5.5-.5h80c.276 0 .5.225.5.5v32h15v-32c0-8.547-6.953-15.5-15.5-15.5h-8.5v-33h8v-48h53.394l29.803 29.804 10.606-10.607zm-82.607 96h-33v-33h33zm8-48h-49v-33h49z"/><path d="m320.098 248h-143v175h143zm-15 160h-113v-145h113z"/><path d="m224.598 328h16v15h-16z"/><path d="m256.598 328h16v15h-16z"/></g></svg>