<svg id="Capa_1" enable-background="new 0 0 511 511" height="512" viewBox="0 0 511 511" width="512" xmlns="http://www.w3.org/2000/svg"><g><path d="m303.5 288h-160.5v-49h193v16.5h15v-31.5h-223v79h175.5z"/><path d="m215.5 48h16v15h-16z"/><path d="m247.5 48h16v15h-16z"/><path d="m439 254.127c0-8.047-3.134-15.612-8.824-21.304-6.349-6.349-14.849-9.259-23.176-8.745v-80.078h-16v-32.5c0-17.369-14.131-31.5-31.5-31.5h-5.1l-68.096-61.905c-12.835-11.668-29.457-18.095-46.804-18.095s-33.969 6.427-46.803 18.095l-68.097 61.905h-5.1c-17.369 0-31.5 14.131-31.5 31.5v32.5h-16v207.5c0 17.369 14.131 31.5 31.5 31.5h58.456c-6.354 12.117-9.956 25.895-9.956 40.5 0 48.248 39.252 87.5 87.5 87.5s87.5-39.252 87.5-87.5c0-13.129-2.912-25.59-8.116-36.777l35.723-35.723h37.393v.5c0 9.098-7.402 16.5-16.5 16.5h-24v15h24c17.369 0 31.5-14.131 31.5-31.5v-52.894l23.176-23.176c5.69-5.69 8.824-13.255 8.824-21.303zm-236.213-224.933c10.067-9.153 23.106-14.194 36.713-14.194s26.646 5.041 36.713 14.194l55.887 50.806h-185.2zm-99.787 97.806h256.5v-15h-256.5v-.5c0-9.098 7.402-16.5 16.5-16.5h240c9.098 0 16.5 7.402 16.5 16.5v32.5h-273zm289 32v17h-305v-17zm-288.5 209c-9.098 0-16.5-7.402-16.5-16.5v-.5h88.5v-15h-88.5v-145h305v38.171c-1.562 1.057-3.049 2.27-4.431 3.652l-111.292 111.293c-11.187-5.204-23.648-8.116-36.777-8.116-27.197 0-51.535 12.474-67.596 32zm136 128c-39.977 0-72.5-32.523-72.5-72.5s32.523-72.5 72.5-72.5 72.5 32.523 72.5 72.5-32.523 72.5-72.5 72.5zm152.5-160h-22.393l22.393-22.394zm27.569-71.177-108.456 108.458c-5.841-8.305-13.088-15.552-21.393-21.393l108.456-108.457c5.898-5.898 15.496-5.897 21.394-.001 2.857 2.857 4.431 6.657 4.431 10.697-.001 4.041-1.575 7.84-4.432 10.696z"/><path d="m239.5 368c-30.603 0-55.5 24.897-55.5 55.5s24.897 55.5 55.5 55.5 55.5-24.897 55.5-55.5-24.897-55.5-55.5-55.5zm0 96c-22.332 0-40.5-18.168-40.5-40.5s18.168-40.5 40.5-40.5 40.5 18.168 40.5 40.5-18.168 40.5-40.5 40.5z"/></g></svg>