<svg id="Capa_1" enable-background="new 0 0 511.008 511.008" height="512" viewBox="0 0 511.008 511.008" width="512" xmlns="http://www.w3.org/2000/svg"><g><path d="m469.234 151.837c4.622 4.622 10.768 7.167 17.304 7.167 6.537 0 12.682-2.546 17.303-7.167 4.622-4.622 7.168-10.767 7.168-17.304 0-6.536-2.545-12.682-7.167-17.304l-46.059-46.059c-4.622-4.622-10.768-7.167-17.304-7.167-6.537 0-12.682 2.546-17.303 7.167-4.622 4.622-7.168 10.767-7.168 17.304 0 6.536 2.545 12.682 7.167 17.304l.88.88-136.698 101.346h-121.057c5.118-3.078 10.026-6.775 14.479-11.229 28.517-28.517 26.264-75.63 26.154-77.621l-.37-6.706-6.706-.369c-1.993-.111-49.104-2.363-77.621 26.152-8.915 8.915-14.822 19.647-18.729 30.25-3.906-10.603-9.814-21.335-18.729-30.25-28.517-28.517-75.628-26.266-77.621-26.152l-6.706.369-.37 6.706c-.11 1.991-2.363 49.104 26.154 77.621 12.083 12.083 27.505 18.641 41.418 22.179-2.305 3.634-3.646 7.937-3.646 12.549 0 10.335 6.71 19.127 16 22.266v25.734c0 63.683 44.164 117.236 103.47 131.666-4.654 5.492-7.47 12.589-7.47 20.334v15.5h207v-15.5c0-7.746-2.816-14.843-7.47-20.334 59.306-14.429 103.47-67.982 103.47-131.666v-8h-15v8c0 66.444-54.056 120.5-120.5 120.5h-128c-66.444 0-120.5-54.056-120.5-120.5v-24.5h88.5v-15h-96c-4.687 0-8.5-3.813-8.5-8.5s3.813-8.5 8.5-8.5h11.256c.451.005.879.008 1.276.008.443 0 .843-.003 1.216-.008h4.504c.373.004.773.008 1.217.008.397 0 .825-.002 1.276-.008h363.256c4.687 0 8.5 3.813 8.5 8.5s-3.813 8.5-8.5 8.5h-272v15h272c12.958 0 23.5-10.542 23.5-23.5s-10.542-23.5-23.5-23.5h-43.554l40.521-56.925zm-117.726 263.167c9.098 0 16.5 7.402 16.5 16.5v.5h-177v-.5c0-9.098 7.402-16.5 16.5-16.5zm-218.665-266.165c17.822-17.821 45.986-21.172 59.072-21.728-.534 13.073-3.853 41.168-21.742 59.057-13.549 13.549-33.071 18.731-47.405 20.683l34.043-34.043-10.606-10.608-34.078 34.078c1.933-14.315 7.105-33.829 20.716-47.439zm-117.726-21.726c13.099.558 41.245 3.915 59.057 21.727 13.549 13.549 18.731 33.07 20.682 47.405l-34.044-34.045-10.606 10.607 34.042 34.042c-14.336-1.952-33.855-7.133-47.404-20.682-17.816-17.813-21.171-45.962-21.727-59.054zm418.666-45.335c1.788-1.789 4.166-2.773 6.696-2.773 2.529 0 4.907.985 6.696 2.774l46.059 46.059c1.789 1.789 2.774 4.167 2.774 6.696 0 2.53-.984 4.908-2.774 6.697-1.788 1.789-4.166 2.773-6.696 2.773-2.529 0-4.907-.985-6.696-2.774l-46.059-46.059c-1.789-1.789-2.774-4.167-2.774-6.696-.001-2.53.984-4.908 2.774-6.697zm-24.242 126.226h-96.998l122.236-90.623 22.941 22.941z"/><path d="m255.508 288.004h16v15h-16z"/><path d="m287.508 288.004h16v15h-16z"/></g></svg>