<svg id="Capa_1" enable-background="new 0 0 511 511" height="512" viewBox="0 0 511 511" width="512" xmlns="http://www.w3.org/2000/svg"><g><path d="m223.25 416h16v15h-16z"/><path d="m255.25 416h16v15h-16z"/><path d="m327.25 128h-16.5v-32.5c0-8.547-6.953-15.5-15.5-15.5h-40.5v-32.5h-15v32.5h-40.5c-8.547 0-15.5 6.953-15.5 15.5v32.5h-16.5c-12.958 0-23.5 10.542-23.5 23.5v336c0 12.958 10.542 23.5 23.5 23.5h160c12.958 0 23.5-10.542 23.5-23.5v-336c0-12.958-10.542-23.5-23.5-23.5zm-128.5-32.5c0-.275.225-.5.5-.5h96c.275 0 .5.225.5.5v32.5h-97zm40.001 96.5v-49h17v49zm96.999 295.5c0 4.687-3.813 8.5-8.5 8.5h-160c-4.687 0-8.5-3.813-8.5-8.5v-336c0-4.687 3.813-8.5 8.5-8.5h56.501v64h15.999v192.5h15v-192.5h16.001v-64h56.499c4.687 0 8.5 3.813 8.5 8.5z"/><path d="m222.75 15.5c0-.275.225-.5.5-.5h48c.275 0 .5.225.5.5v48h15v-48c0-8.547-6.953-15.5-15.5-15.5h-48c-8.547 0-15.5 6.953-15.5 15.5v48h15z"/><path d="m319.25 40h16v15h-16z"/><path d="m351.25 64h16v15h-16z"/><path d="m351.25 16h16v15h-16z"/></g></svg>