<svg id="Capa_1" enable-background="new 0 0 511 511" height="512" viewBox="0 0 511 511" width="512" xmlns="http://www.w3.org/2000/svg"><g><path d="m263 176h-24v-144h-95v144h-24v32h-48v279.5c0 12.958 10.542 23.5 23.5 23.5h192c12.958 0 23.5-10.542 23.5-23.5v-279.5h-48zm-39-129v97h-65v-97zm-65 112h65v17h-65zm-24 32h113v17h-113zm152.5 305h-192c-4.687 0-8.5-3.813-8.5-8.5v-56.5h209v56.5c0 4.687-3.813 8.5-8.5 8.5zm8.5-208h-136.5v15h136.5v113h-209v-113h56.5v-15h-56.5v-65h209z"/><path d="m167.5 352h16v15h-16z"/><path d="m199.5 352h16v15h-16z"/><path d="m415 175.5h-15v128.5h-17v-128.5h-15v134.555l-17.83 44.577 5.457 3.291c10.058 6.065 22.966 9.099 35.873 9.099s25.815-3.033 35.873-9.099l5.457-3.291-17.83-44.577zm-45.977 172.387 11.555-28.887h21.844l11.554 28.887c-13.384 5.449-31.568 5.449-44.953 0z"/><path d="m344 0v159h95v-159zm80 15v97h-65v-97zm-65 129v-17h65v17z"/></g></svg>