<svg id="Capa_1" enable-background="new 0 0 511 511" height="512" viewBox="0 0 511 511" width="512" xmlns="http://www.w3.org/2000/svg"><g><path d="m231.5 384h16v15h-16z"/><path d="m263.5 384h16v15h-16z"/><path d="m383 415.5v-14.641l77.83 29.65 5.34-14.018-83.17-31.684v-257.307c0-70.304-57.196-127.5-127.5-127.5s-127.5 57.196-127.5 127.5v257.308l-25 9.524v-18.832c0-12.958-10.542-23.5-23.5-23.5h-32v15h32c4.687 0 8.5 3.813 8.5 8.5v24.546l-43.17 16.446 5.34 14.018 37.83-14.413v39.403c0 12.958 10.542 23.5 23.5 23.5h17.734c3.138 9.29 11.93 16 22.266 16h92.894l16 16h75.106v-15h-68.894l-16-16h-75.606v-17h75.606l16-16h140.894c4.687 0 8.5 3.813 8.5 8.5v32c0 4.687-3.813 8.5-8.5 8.5h-56v15h56c12.958 0 23.5-10.542 23.5-23.5v-32c0-12.958-10.542-23.5-23.5-23.5h-147.106l-16 16h-92.894c-10.336 0-19.128 6.71-22.266 16h-17.734c-4.687 0-8.5-3.813-8.5-8.5v-45.117l120-45.714v-36.825c9.594 4.662 20.236 7.157 31.26 7.157h2.48c11.023 0 21.666-2.495 31.26-7.157v87.656h15v-97.464c3.46-2.946 6.669-6.242 9.572-9.871l16.735-20.919c11.456-14.32 19.829-30.835 24.71-48.356 5.096-.405 9.854-2.022 13.982-4.572v181.182zm-231.5 47.5h8.5v17h-8.5c-4.687 0-8.5-3.813-8.5-8.5s3.813-8.5 8.5-8.5zm104-448c62.033 0 112.5 50.467 112.5 112.5v53.181c-4.802-2.965-10.454-4.681-16.5-4.681-48.799 0-88.5-39.701-88.5-88.5h-15c0 48.799-39.701 88.5-88.5 88.5-6.046 0-11.698 1.716-16.5 4.681v-53.181c0-62.033 50.467-112.5 112.5-112.5zm-101.959 207.869c-6.158-2.396-10.541-8.374-10.541-15.369 0-6.396 3.666-11.942 9-14.679v9.779c0 6.806.523 13.582 1.541 20.269zm54.459 131.463-65 24.762v-144.775c4.128 2.549 8.886 4.166 13.982 4.572 4.881 17.521 13.254 34.035 24.71 48.356l16.735 20.919c2.903 3.629 6.112 6.925 9.572 9.871v36.295zm109.595-76.456-16.735 20.919c-10.781 13.476-26.862 21.205-44.12 21.205h-2.48c-17.257 0-33.338-7.729-44.119-21.205l-16.735-20.919c-17.029-21.285-26.406-48.019-26.406-75.276v-11.874c6.223-.448 12.297-1.446 18.17-2.95l1.997 1.997c5.949 5.95 13.86 9.226 22.273 9.226h30.06v-15h-30.059c-2.776 0-5.446-.684-7.822-1.966 24.402-10.915 43.832-31.008 53.881-55.865 10.048 24.856 29.478 44.95 53.881 55.865-2.376 1.283-5.046 1.966-7.822 1.966h-30.059v15h30.059c8.414 0 16.324-3.276 22.273-9.226l1.997-1.997c5.873 1.504 11.947 2.502 18.17 2.95v11.874c.001 27.257-9.376 53.991-26.404 75.276zm39.864-55.007c1.019-6.687 1.541-13.463 1.541-20.269v-9.779c5.334 2.737 9 8.282 9 14.679 0 6.995-4.383 12.973-10.541 15.369z"/></g></svg>