<svg id="Capa_1" enable-background="new 0 0 511 511" height="512" viewBox="0 0 511 511" width="512" xmlns="http://www.w3.org/2000/svg"><g><path d="m231.5 424.246h16v15h-16z"/><path d="m263.5 424.246h16v15h-16z"/><path d="m255.5 280.246c-26.636 0-47.5 13.836-47.5 31.5s20.864 31.5 47.5 31.5 47.5-13.836 47.5-31.5-20.864-31.5-47.5-31.5zm0 48c-18.601 0-32.5-8.711-32.5-16.5s13.899-16.5 32.5-16.5 32.5 8.711 32.5 16.5-13.899 16.5-32.5 16.5z"/><path d="m408 394.095h15v102.73h-15z" transform="matrix(.356 -.935 .935 .356 -148.693 675.159)"/><path d="m303 358.282c3.46-2.946 6.669-6.242 9.572-9.871l16.735-20.919c16.722-20.903 26.881-46.479 29.187-73.039 14.013-3.191 24.506-15.743 24.506-30.707 0-14.785-10.241-27.216-24-30.591v-17.409c0-36.892-19.406-69.332-48.542-87.663-3.746-26.988-26.957-47.837-54.958-47.837s-51.213 20.849-54.958 47.837c-29.136 18.331-48.542 50.771-48.542 87.663v17.409c-13.759 3.374-24 15.806-24 30.591 0 14.965 10.493 27.517 24.505 30.707 2.306 26.56 12.465 52.136 29.187 73.039l16.735 20.919c2.903 3.629 6.112 6.925 9.572 9.871v36.295l-163.17 62.16 5.34 14.018 172.831-65.841v-36.825c9.594 4.662 20.236 7.157 31.26 7.157h2.48c11.023 0 21.666-2.495 31.26-7.157v36.825l60.83 23.174 5.34-14.018-51.17-19.493zm11.197-139.84-8.971 8.971c-3.116 3.116-7.26 4.833-11.667 4.833h-14.542c-.004-.167-.017-.332-.017-.5 0-13.509 14.58-24.5 32.5-24.5s32.5 10.991 32.5 24.5-14.58 24.5-32.5 24.5c-10.126 0-19.183-3.51-25.148-9h7.207c8.414 0 16.324-3.276 22.273-9.226l8.971-8.971zm53.803 5.304c0 6.396-3.666 11.942-9 14.679v-29.357c5.334 2.736 9 8.281 9 14.678zm-112.5-168.5c16.378 0 30.506 9.778 36.88 23.797-11.463-4.386-23.894-6.797-36.88-6.797s-25.418 2.411-36.88 6.797c6.374-14.02 20.502-23.797 36.88-23.797zm0 32c46.801 0 85.226 36.517 88.296 82.553-18.212-29.699-50.978-49.553-88.296-49.553s-70.083 19.855-88.296 49.553c3.07-46.037 41.495-82.553 88.296-82.553zm-23.517 145h-14.542c-4.407 0-8.551-1.716-11.667-4.833l-8.971-8.971-10.606 10.606 8.971 8.971c5.949 5.95 13.86 9.226 22.273 9.226h7.207c-5.965 5.49-15.022 9-25.148 9-17.92 0-32.5-10.991-32.5-24.5s14.58-24.5 32.5-24.5 32.5 10.991 32.5 24.5c0 .168-.012.334-.017.501zm-88.983-8.5c0-6.396 3.666-11.942 9-14.679v29.357c-5.334-2.737-9-8.282-9-14.678zm111.26 136.5c-17.257 0-33.338-7.729-44.119-21.205l-16.735-20.919c-13.082-16.353-21.627-35.926-24.895-56.478 8.326 5.976 19.154 9.602 30.989 9.602 26.191 0 47.5-17.72 47.5-39.5s-21.309-39.5-47.5-39.5c-11.132 0-21.373 3.209-29.479 8.562 10.13-37.714 44.611-65.562 85.479-65.562s75.349 27.848 85.479 65.562c-8.106-5.353-18.348-8.562-29.479-8.562-26.191 0-47.5 17.72-47.5 39.5s21.309 39.5 47.5 39.5c11.835 0 22.664-3.626 30.989-9.602-3.267 20.552-11.812 40.125-24.895 56.478l-16.735 20.919c-10.781 13.476-26.862 21.205-44.119 21.205z"/><path d="m86.529 287.246c6.536 0 12.682-2.545 17.303-7.167 9.541-9.541 9.541-25.065 0-34.606l-11.029-11.029-10.606 10.606 11.029 11.029c1.789 1.789 2.774 4.167 2.774 6.697s-.985 4.908-2.774 6.697-4.167 2.774-6.697 2.774-4.908-.985-6.697-2.774l-57.657-57.657c-4.627-4.628-7.175-10.781-7.175-17.325v-54.863c0-10.818 4.213-20.989 11.862-28.638l57.941-57.941-10.606-10.607-57.941 57.941c-10.483 10.483-16.256 24.42-16.256 39.245v54.863c0 10.551 4.109 20.47 11.569 27.931l57.657 57.657c4.622 4.621 10.767 7.167 17.303 7.167z"/><path d="m80 207.746c0 4.687-3.813 8.5-8.5 8.5s-8.5-3.813-8.5-8.5v-48h-15v48c0 12.958 10.542 23.5 23.5 23.5s23.5-10.542 23.5-23.5v-68.894l37.803-37.803-10.606-10.606-42.197 42.196z"/><path d="m494.744 100.383-57.941-57.941-10.606 10.606 57.941 57.941c7.649 7.649 11.862 17.82 11.862 28.638v54.863c0 6.544-2.548 12.697-7.176 17.324l-57.657 57.657c-1.789 1.789-4.167 2.774-6.697 2.774s-4.908-.985-6.697-2.774-2.774-4.167-2.774-6.697.985-4.908 2.774-6.697l25.075-25.075c11.378-1.63 20.152-11.436 20.152-23.256v-48h-15v48c0 4.687-3.813 8.5-8.5 8.5s-8.5-3.813-8.5-8.5v-75.106l-42.197-42.197-10.606 10.606 37.803 37.803v68.894c0 7.853 3.876 14.813 9.811 19.083l-18.643 18.643c-9.541 9.541-9.541 25.065 0 34.606 4.622 4.622 10.767 7.167 17.303 7.167s12.682-2.545 17.303-7.167l57.657-57.657c7.46-7.46 11.569-17.38 11.569-27.931v-54.863c0-14.824-5.773-28.761-16.256-39.244z"/></g></svg>