<svg id="Capa_1" enable-background="new 0 0 511 511" height="512" viewBox="0 0 511 511" width="512" xmlns="http://www.w3.org/2000/svg"><g><path d="m255.5 416c-98.026 0-183.208-72.931-198.142-169.645l-14.824 2.289c7.767 50.301 33.357 96.437 72.057 129.909 37.21 32.184 84.329 50.595 133.409 52.302v33.145h-88.5v15h192v-15h-88.5v-33.144c49.08-1.708 96.198-20.119 133.408-52.302 38.7-33.473 64.29-79.608 72.058-129.909l-14.824-2.289c-14.935 96.713-100.117 169.644-198.142 169.644z"/><path d="m231.5 312h16v15h-16z"/><path d="m263.5 312h16v15h-16z"/><path d="m255.5 367c83.537 0 151.5-67.962 151.5-151.5s-67.963-151.5-151.5-151.5c-83.538 0-151.5 67.962-151.5 151.5s67.962 151.5 151.5 151.5zm0-288c75.267 0 136.5 61.234 136.5 136.5s-61.233 136.5-136.5 136.5c-75.266 0-136.5-61.234-136.5-136.5s61.234-136.5 136.5-136.5z"/><path d="m487.5 192c-10.336 0-19.128 6.71-22.266 16h-26.394c-1.774-44.84-19.637-86.953-50.982-119.597-33.949-35.354-79.633-55.372-128.638-56.366-47.284-.949-92.519 16.061-127.419 47.923l10.113 11.078c32.047-29.257 73.603-44.882 117.001-44.004 44.999.913 86.949 19.294 118.123 51.758s47.839 75.125 46.927 120.124c-.913 44.999-19.294 86.948-51.759 118.122s-75.128 47.844-120.123 46.927c-92.893-1.884-166.933-78.99-165.049-171.882.829-40.886 16.456-80.012 44.002-110.171l-11.075-10.116c-29.15 31.916-46.041 73.051-47.804 116.204h-26.391c-3.138-9.29-11.93-16-22.266-16-12.958 0-23.5 10.542-23.5 23.5s10.542 23.5 23.5 23.5c10.336 0 19.128-6.71 22.266-16h26.397c3.87 96.076 82.221 173.987 179.617 175.962 1.277.026 2.545.039 3.819.039 47.592-.001 92.565-18.079 126.998-51.143 34.443-33.074 54.322-77.288 56.242-124.858h26.395c3.138 9.29 11.93 16 22.266 16 12.958 0 23.5-10.542 23.5-23.5s-10.542-23.5-23.5-23.5zm-464 32c-4.687 0-8.5-3.813-8.5-8.5s3.813-8.5 8.5-8.5 8.5 3.813 8.5 8.5-3.813 8.5-8.5 8.5zm464 0c-4.687 0-8.5-3.813-8.5-8.5s3.813-8.5 8.5-8.5 8.5 3.813 8.5 8.5-3.813 8.5-8.5 8.5z"/><path d="m153.677 208h203.647v15h-203.647z" transform="matrix(.707 -.707 .707 .707 -77.546 243.8)"/><path d="m166.931 176h113.137v15h-113.137z" transform="matrix(.707 -.707 .707 .707 -64.291 211.798)"/></g></svg>