<svg id="Capa_1" enable-background="new 0 0 511.5 511.5" height="512" viewBox="0 0 511.5 511.5" width="512" xmlns="http://www.w3.org/2000/svg"><g><path d="m411.388 74.299-52.611 17.537-134.278-18.044-1.998 14.867 129.499 17.401v114.88l-218.532 29.364c-7.433.873-14.963 1.401-22.468 1.6v-25.362c31.49-3.725 56-30.567 56-63.042s-24.51-59.317-56-63.042v-25.362c7.505.198 15.036.727 22.468 1.6l73.033 9.813 1.997-14.867-73.096-9.821-.122-.015c-10.181-1.199-20.54-1.806-30.787-1.806h-.993c-57.07 0-103.5 46.43-103.5 103.5s46.43 103.5 103.5 103.5h.993c10.247 0 20.605-.607 30.788-1.806l.719-.097v114.903h-65v-104.5h-15v128c0 12.958 10.542 23.5 23.5 23.5h16.5v24.5h15v-24.5h16.5c12.958 0 23.5-10.542 23.5-23.5v-49.409c13.759-3.375 24-15.806 24-30.591s-10.241-27.216-24-30.591v-29.827l207.776-27.917 52.611 17.537 2.867-5.942c10.799-22.383 16.746-51.951 16.746-83.26s-5.947-60.877-16.745-83.259zm-307.888 137.701c-4.251 0-8.375-.554-12.307-1.586l59.221-59.22c1.032 3.932 1.586 8.055 1.586 12.306 0 26.743-21.757 48.5-48.5 48.5zm40.317-75.424-67.242 67.241c-5.291-3.545-9.848-8.102-13.393-13.393l67.242-67.241c5.292 3.545 9.848 8.102 13.393 13.393zm-88.817 26.924c0-26.743 21.757-48.5 48.5-48.5 4.251 0 8.375.554 12.307 1.586l-59.221 59.22c-1.032-3.931-1.586-8.055-1.586-12.306zm-40 0c0-46.272 35.698-84.359 81-88.179v25.137c-31.49 3.725-56 30.567-56 63.042s24.51 59.317 56 63.042v25.137c-45.302-3.82-81-41.907-81-88.179zm112.5 248.5h-48c-4.687 0-8.5-3.813-8.5-8.5v-8.5h65v8.5c0 4.687-3.813 8.5-8.5 8.5zm32.5-88.5c0 6.396-3.666 11.941-9 14.678v-29.356c5.334 2.737 9 8.282 9 14.678zm243.433-89.262-36.433-12.144v-117.188l36.433-12.144c16.83 40.536 16.83 100.94 0 141.476z"/><path d="m447.5 148h64v15h-64z"/><path d="m447.5 188h64v15h-64z"/><path d="m447.5 108h64v15h-64z"/><path d="m95.5 300h16v15h-16z"/><path d="m95.5 332h16v15h-16z"/></g></svg>