<svg id="Capa_1" enable-background="new 0 0 511 511" height="512" viewBox="0 0 511 511" width="512" xmlns="http://www.w3.org/2000/svg"><g><path d="m511 95.5c0-12.958-10.542-23.5-23.5-23.5h-2.852l-145.151 129.024-46.751 18.7c-12.466-30.239-35.096-54.297-63.14-68.724h31.348c17.838 13.871 32.602 31.754 42.771 51.882l13.389-6.764c-8.454-16.734-19.804-32.051-33.313-45.118h51.199v-23.5c0-21.78-17.72-39.5-39.5-39.5h-256c-21.78 0-39.5 17.72-39.5 39.5v23.5h51.199c-13.327 12.884-24.554 27.958-32.956 44.407-12.105 23.699-18.243 49.3-18.243 76.093 0 92.36 75.141 167.5 167.5 167.5 66.612 0 126.889-39.447 153.563-100.497l-13.746-6.006c-24.286 55.586-79.168 91.503-139.817 91.503-84.089 0-152.5-68.411-152.5-152.5 0-47.598 21.497-91.368 59.052-120.5h31.522c-43.655 22.526-73.574 68.084-73.574 120.5 0 74.715 60.785 135.5 135.5 135.5 59.114 0 111.01-38.159 128.947-93.758 13.595 8.706 29.745 13.758 47.053 13.758h5.078l33.399-83.498 129.023-145.15zm-144.301 145.806-12.224 30.562-43.343-43.343 30.562-12.225zm-351.699-105.306v-8.5c0-13.509 10.99-24.5 24.5-24.5h256c13.51 0 24.5 10.991 24.5 24.5v8.5zm160 255.742v-96.242h-15v96.26c-60.482-3.733-109.027-52.279-112.76-112.76h80.26v-15h-80.26c3.733-60.482 52.278-109.027 112.76-112.76v96.26h15v-96.246c46.038 2.832 86.232 31.544 103.822 74.04l-22.822 9.128v5.078c0 8.502 1.224 16.722 3.496 24.5h-51.996v15h57.937c4.651 9.154 10.865 17.382 18.289 24.338-13.617 49.869-57.48 85.237-108.726 88.404zm163.491-79.913c-35.994-2.468-64.853-31.326-67.32-67.319l24.808-9.923 52.435 52.435zm36.688-83.257-20.751-20.751 135.52-120.462c2.723.82 4.874 2.971 5.693 5.693z"/><path d="m143.5 264h16v15h-16z"/><path d="m175.5 264h16v15h-16z"/></g></svg>