<?xml version="1.0" encoding="UTF-8"?>
<svg id="Outline" xmlns="http://www.w3.org/2000/svg" version="1.1" viewBox="0 0 64 64">
  <!-- Generator: Adobe Illustrator 29.5.1, SVG Export Plug-In . SVG Version: 2.1.0 Build 141)  -->
  <path d="M54.33002,23.90997c.39996-.28998.78998-.60999,1.14996-.96997.98004-.98999,1.52002-2.29004,1.52002-3.69,0-1.75-.87-3.37-2.32001-4.33002l-1.12-.75c-.31-.21002-.71002-.22998-1.02997-.04999-.33002.16998-.53003.51001-.53003.88v.09998c0,1.04999-.84998,1.90002-1.90002,1.90002-.45996,0-.90997-.17004-1.25995-.48004l-6.39001-5.67999c-1.34003-1.19-3.06-1.83997-4.84003-1.83997-1.95001,0-3.77997.76001-5.15997,2.13l-.45001.45996-.45001-.45996c-1.38-1.37-3.20996-2.13-5.15997-2.13-1.78003,0-3.5.64996-4.84003,1.83997l-6.39001,5.67999c-.72998.65002-1.90997.61005-2.59998-.07996-.35999-.36005-.56-.83002-.56-1.34003v-.09998c0-.37-.20001-.71002-.53003-.88-.31995-.17999-.71997-.16003-1.02997.04999l-1.10999.75c-1.46002.96002-2.33002,2.58002-2.33002,4.33002,0,1.39996.53998,2.70001,1.52002,3.69.35999.35999.75.67999,1.14996.97998l-.73999.73999c-1.25,1.23999-1.92999,2.89001-1.92999,4.65002,0,1.29999.38,2.57001,1.09998,3.64996l1.07001,1.59003c.15002.22998.39001.39001.66003.44.26996.03998.54999-.03003.76996-.19l2.16003-1.62c-.15002,3.34998.53998,6.66998,2.07001,9.71002l.27997.56c.14001.27997.41003.48999.73004.53998.31.04999.63995-.06.87-.28003l1.70996-1.70996c.95001,3.26996,3.10004,6.07996,6.07001,7.85999.45001.27002,1.04999.14001,1.34003-.31l.57001-.84003c.52997,1.78003,1.59998,3.37,3.09998,4.57001l1.88,1.5c.17999.15002.40002.22003.62.22003s.44-.07001.62-.22003l1.88-1.5c1.5-1.20001,2.57001-2.78998,3.09998-4.57001l.57001.84003c.29004.45001.88.58002,1.34003.31,2.96997-1.78003,5.12-4.59003,6.07001-7.85999l1.70996,1.70996c.23004.22003.56.33002.87.28003.32001-.04999.59003-.26001.73004-.53998l.27997-.56c1.53003-3.04004,2.22003-6.36005,2.07001-9.71002l2.16003,1.62c.21997.15997.5.22998.76996.19.27002-.04999.51001-.21002.66003-.44l1.07001-1.59003c.71997-1.07996,1.09998-2.34998,1.09998-3.64996,0-1.76001-.67999-3.41003-1.92999-4.65002l-.73999-.75ZM54.22998,31.84998l-.47998.72003-3.15002-2.37c-.32996-.24005-.76996-.27002-1.12-.05005-.34998.21002-.52997.61005-.46997,1.01001.58002,3.47003.13,6.95001-1.29999,10.14001l-2-2.01001c-.27002-.26001-.66003-.35999-1.02002-.23999-.34998.10999-.62.41998-.67999.78998l-.04004.23999c-.50995,3.06006-2.19995,5.75-4.68994,7.54004l-1.45001-2.16998c-.23999-.37006-.70001-.54004-1.12-.41003-.42004.13-.71002.52002-.71002.96002,0,2.23999-1,4.32001-2.75,5.71997l-1.25,1-1.25-1c-1.75-1.39996-2.75-3.47998-2.75-5.71997,0-.44-.28998-.83002-.71002-.96002-.41998-.13-.88.03998-1.12.41003l-1.45001,2.16998c-2.48999-1.79004-4.17999-4.47998-4.68994-7.53003l-.04004-.25c-.06-.37-.33002-.67999-.67999-.78998-.35999-.12-.75-.02002-1.02002.23999l-2,2.01001c-1.42999-3.19-1.88-6.66998-1.29999-10.14001.06-.39996-.12-.79999-.46997-1.01001-.35004-.21997-.79004-.19-1.12.05005l-3.15002,2.37-.47998-.72003c-.5-.75-.77002-1.63-.77002-2.53998,0-1.22003.47998-2.37,1.34003-3.23999l1.09998-1.09003c.15997.07001.31.15002.46997.22003.94.38995,1.94.63995,2.99005.75.56.06,1.03998-.35004,1.09998-.90002.04999-.54999-.34998-1.03998-.90002-1.09003-.84998-.08997-1.65997-.28998-2.41998-.59998-1.02997-.42999-1.95001-1.04999-2.73999-1.84003-.60999-.59998-.94-1.40997-.94-2.26996,0-1.03003.48999-1.98999,1.32001-2.59003.20001.44.46997.85004.82001,1.20001,1.40997,1.40997,3.84998,1.48999,5.33997.15997l6.39001-5.67999c.97998-.85999,2.22998-1.33997,3.52002-1.33997,1.41998,0,2.73999.54999,3.73999,1.54999l1.15997,1.15997c.39001.39001,1.03003.39001,1.42004,0l1.15997-1.15997c1-1,2.32001-1.54999,3.73999-1.54999,1.29004,0,2.54004.47998,3.52002,1.33997l6.39001,5.67999c.70996.63,1.63.98004,2.57996.98004,1.60004,0,2.97003-.96002,3.57001-2.34003.84003.60004,1.33002,1.56,1.33002,2.59003,0,.85999-.33002,1.66998-.94,2.26996-.78998.79004-1.71002,1.41003-2.73999,1.84003-1.03998.41998-2.13.64001-3.22998.64001-2.51001,0-4.99005-.40002-7.35004-1.19-2.37-.79004-4.58997-1.95001-6.60999-3.46002l-1.53003-1.14996c-.34998-.27002-.84998-.27002-1.19995,0l-1.53003,1.14996c-3.21002,2.41003-7.01001,3.95001-11,4.46002-.53998.07001-.92999.57001-.85999,1.12.07001.53998.57001.92999,1.12.85999,1.94-.25,3.83997-.72998,5.65997-1.40997,1.23004,1.64996,2.96002,2.82001,4.96002,3.32996.09003.02002.16998.03003.25.03003.45001,0,.84998-.29999.96997-.75.14001-.53998-.18994-1.08002-.71997-1.22003-1.39001-.34998-2.60999-1.12-3.53998-2.19995,1.52997-.72003,3-1.60004,4.35999-2.62l.92999-.70001.92999.70001c1.37,1.02997,2.84003,1.88995,4.37,2.60999-.92999,1.08002-2.14996,1.85999-3.54999,2.20996-.53003.14001-.85999.68005-.71997,1.22003.12.45001.51996.75.96997.75.08002,0,.15997-.01001.25-.03003,2-.50995,3.73999-1.67999,4.96997-3.33997.29004.10999.58002.23999.88.33997,2.57001.86005,5.26001,1.29004,7.99005,1.29004,1.37,0,2.70996-.27002,3.98999-.79999.16998-.06.32001-.15002.47998-.22003l1.09998,1.09003c.86005.87,1.34003,2.01996,1.34003,3.23999,0,.90997-.27002,1.78998-.77002,2.53998Z"/>
  <path d="M24,38.17139v-.17139c0-.55225-.44727-1-1-1s-1,.44775-1,1v.17139c0,2.09082.81445,4.05664,2.29297,5.53564.37626.37638,1.02221.39185,1.41407,0,.39062-.39014.39062-1.02344,0-1.41406-1.10059-1.10107-1.70703-2.56494-1.70703-4.12158Z"/>
  <path d="M41,37c-.55273,0-1,.44775-1,1v.17139c0,1.55664-.60645,3.02051-1.70703,4.12158-.39061.39061-.39062,1.02386-.00006,1.41401.38216.38174,1.03361.38056,1.41412.00006,1.47852-1.479,2.29297-3.44482,2.29297-5.53564v-.17139c0-.55225-.44727-1-1-1Z"/>
  <path d="M34,42c-.55273,0-1,.44775-1,1v.17139c0,1.18213-.34961,2.31055-1,3.26758-.65039-.95703-1-2.08545-1-3.26758v-.17139c0-.55225-.44727-1-1-1s-1,.44775-1,1v.17139c0,2.09082.81445,4.05664,2.29297,5.53564.1875.1875.44141.29297.70703.29297s.51953-.10547.70703-.29297c1.47852-1.479,2.29297-3.44482,2.29297-5.53564v-.17139c0-.55225-.44727-1-1-1Z"/>
</svg>