<svg id="Capa_1" enable-background="new 0 0 511.488 511.488" height="512" viewBox="0 0 511.488 511.488" width="512" xmlns="http://www.w3.org/2000/svg"><g><path d="m200.25 399.488h15v112h-15z"/><path d="m183.25 227.887v-4.4c0-21.78-17.72-39.5-39.5-39.5s-39.5 17.72-39.5 39.5v4.4c-19.842 13.184-32 35.629-32 59.6v224h15v-224c0-15.326 6.294-29.86 17-40.372v56.372c0 12.958 10.542 23.5 23.5 23.5h32c12.958 0 23.5-10.542 23.5-23.5v-56.372c10.706 10.512 17 25.046 17 40.372v96h15v-96c0-23.97-12.159-46.416-32-59.6zm-23.5 84.101h-32c-4.687 0-8.5-3.813-8.5-8.5 0-13.509 10.991-24.5 24.5-24.5s24.5 10.991 24.5 24.5c0 4.687-3.813 8.5-8.5 8.5zm8.5-39.45c-6.739-5.346-15.25-8.551-24.5-8.551s-17.761 3.205-24.5 8.551v-49.051c0-13.509 10.991-24.5 24.5-24.5s24.5 10.991 24.5 24.5z"/><path d="m103.75 391.988h80v15h-80z"/><path d="m271.75 180.881-13.394-13.394 52.697-52.697-10.606-10.606-56.748 56.748-51.449 17.149v5.406c0 35.014 28.486 63.5 63.5 63.5h5.406l17.149-51.449 56.748-56.748-10.606-10.606zm-21.31 50.818c-22.511-2.462-40.44-20.391-42.902-42.902l38.186-12.729 17.445 17.445z"/><path d="m432.367 26.896-20.025-20.025c-8.362-8.362-21.709-9.194-31.045-1.933l-88.651 74.053 67.601 67.601 73.888-88.447.165-.204c7.26-9.337 6.43-22.683-1.933-31.045zm-9.84 21.747-63.274 75.741-44.399-44.399 75.741-63.274c3.372-2.553 8.142-2.232 11.141.767l20.025 20.025c2.998 2.998 3.319 7.768.766 11.14z"/><path d="m119.75 479.988h16v15h-16z"/><path d="m151.75 479.988h16v15h-16z"/></g></svg>