<svg id="Capa_1" enable-background="new 0 0 511 511" height="512" viewBox="0 0 511 511" width="512" xmlns="http://www.w3.org/2000/svg"><g><path d="m257.127 494.571c-.109.814-.809 1.429-1.627 1.429s-1.518-.614-1.626-1.421l-11.74-88.07-14.868 1.982 11.741 88.077c1.105 8.228 8.196 14.432 16.493 14.432s15.388-6.204 16.494-14.439l11.74-88.07-14.868-1.982z"/><path d="m231.5 128h16v15h-16z"/><path d="m263.5 128h16v15h-16z"/><path d="m394.438 24.599c-37.265-15.863-86.607-24.599-138.938-24.599s-101.673 8.736-138.938 24.599l-5.765 2.454 41.203 181.289v115.394l3.627 2.187c8.893 5.363 18.754 9.908 29.312 13.613l11.798 35.396c3.205 9.611 12.164 16.068 22.294 16.068h72.936c10.131 0 19.09-6.458 22.294-16.069l11.798-35.396c10.558-3.705 20.419-8.25 29.312-13.613l3.627-2.187v-115.393l41.202-181.289zm-11.661 11.441-6.736 29.639c-34.407-11.43-76.813-17.682-120.541-17.682s-86.134 6.252-120.541 17.681l-6.736-29.639c71.773-28.083 182.781-28.083 254.554.001zm-82.745 334.148c-1.159 3.477-4.399 5.812-8.064 5.812h-72.936c-3.665 0-6.905-2.336-8.064-5.812l-8.479-25.437c16.648 4.093 34.57 6.249 53.01 6.249s36.362-2.156 53.01-6.249zm-133.032-55.005v-95.104c25.106 12.253 56.004 18.921 88.5 18.921s63.394-6.668 88.5-18.921v95.104c-49.808 27.83-127.192 27.83-177 0zm177.915-112.551c-50.08 28.532-128.75 28.532-178.83 0l-27.785-122.253c68.169-23.11 166.23-23.11 234.399 0z"/></g></svg>